<?xml version="1.0" encoding="UTF-8"?>
<svg version="1.1" xmlns="http://www.w3.org/2000/svg" width="129" height="129">
<path d="M0 0 C42.57 0 85.14 0 129 0 C129 42.57 129 85.14 129 129 C86.43 129 43.86 129 0 129 C0 86.43 0 43.86 0 0 Z " fill="#4C4698" transform="translate(0,0)"/>
<path d="M0 0 C42.57 0 85.14 0 129 0 C129 42.57 129 85.14 129 129 C86.43 129 43.86 129 0 129 C0 86.43 0 43.86 0 0 Z M31 2 C30.76183292 4.14350376 30.52730717 6.28747699 30.31152344 8.43334961 C30.01993103 10.83578765 29.58967576 13.13988332 29.078125 15.50390625 C27.82423747 21.6318216 27.02040258 27.80336106 26.1875 34 C24.41534243 46.8092942 22.08706903 59.45546348 19.55957031 72.13378906 C18.61770722 76.95816634 17.78651433 81.80065424 16.95507812 86.64501953 C16.37695814 89.97923466 15.73506477 93.27407911 14.9375 96.5625 C13.80102852 101.36197872 13.30397537 106.25672844 12.78491211 111.15454102 C12.28341658 115.61515381 11.23852872 119.69611271 10 124 C10 125.32 10 126.64 10 128 C20.56 128 31.12 128 42 128 C43.87495248 118.35738727 45.55651899 108.73513432 46.90942383 99.00488281 C47.63949384 93.89491016 48.66716761 88.9881109 50 84 C50.73412109 83.9906543 51.46824219 83.98130859 52.22460938 83.97167969 C71.89671227 83.65756659 88.17646771 83.18052929 105 72 C105.63679688 71.6390625 106.27359375 71.278125 106.9296875 70.90625 C111.23960882 68.41893222 112.89603222 65.36977924 115 61 C115 60.34 115 59.68 115 59 C115.66 59 116.32 59 117 59 C118.05204084 56.34484932 119.04843869 53.69180407 120 51 C120.28617187 50.19046875 120.57234375 49.3809375 120.8671875 48.546875 C123.80934931 39.1879984 125.11510321 28.59237964 120.9375 19.4375 C118.72640255 15.6452474 116.13757973 12.89839188 112.6484375 10.25390625 C111 9 111 9 109.625 7.47265625 C107.4755774 5.52474202 105.35667414 4.82547292 102.625 3.875 C101.68914062 3.54242188 100.75328125 3.20984375 99.7890625 2.8671875 C95.09754373 1.40847998 90.85413275 0.87432234 85.94042969 0.87060547 C84.14397003 0.86587723 84.14397003 0.86587723 82.31121826 0.86105347 C81.02773499 0.8630777 79.74425171 0.86510193 78.421875 0.8671875 C77.08620181 0.86651352 75.75052873 0.86554271 74.41485596 0.86428833 C71.62421493 0.86281783 68.83360603 0.86494644 66.04296875 0.86962891 C62.45933883 0.87534801 58.87578345 0.8720294 55.29215622 0.86605644 C51.8770564 0.86158649 48.46197694 0.86470942 45.046875 0.8671875 C43.1095047 0.86415115 43.1095047 0.86415115 41.13299561 0.86105347 C39.94796448 0.86420563 38.76293335 0.86735779 37.54199219 0.87060547 C36.49340027 0.87140106 35.44480835 0.87219666 34.36444092 0.87301636 C32.04369052 0.73358671 32.04369052 0.73358671 31 2 Z " fill="#FBFBFB" transform="translate(0,0)"/>
<path d="M0 0 C7.58110943 -0.09344875 15.16215777 -0.16413913 22.74371529 -0.20724869 C26.2657139 -0.22795882 29.78731316 -0.2559643 33.30908203 -0.30175781 C37.37536029 -0.35428938 41.44123151 -0.3730817 45.5078125 -0.390625 C46.74798126 -0.41127014 47.98815002 -0.43191528 49.26589966 -0.45318604 C59.73375731 -0.45582112 72.24095285 0.84716834 80.375 8.125 C88.22431916 16.72187336 91.51521159 22.86227332 91.3984375 34.71484375 C90.9040232 42.46487817 88.47038854 51.05922292 85 58 C84.34 58 83.68 58 83 58 C82.71125 58.7425 82.4225 59.485 82.125 60.25 C81.568125 61.61125 81.568125 61.61125 81 63 C80.75121094 63.64582031 80.50242187 64.29164062 80.24609375 64.95703125 C77.59564229 69.30244226 72.28149514 71.460709 68 74 C67.21625 74.49242188 66.4325 74.98484375 65.625 75.4921875 C60.25882248 78.73105893 55.19171503 80.13393548 49 81 C49 80.67 49 80.34 49 80 C46.03 79.67 43.06 79.34 40 79 C40.02320313 77.9378125 40.04640625 76.875625 40.0703125 75.78125 C40.58237076 61.59806056 40.58237076 61.59806056 33.765625 49.60546875 C25.282535 41.89186258 16.47256683 41.9239292 5.5 41.4375 C4.12328125 41.37272461 4.12328125 41.37272461 2.71875 41.30664062 C0.47927939 41.20166544 -1.76028092 41.09950752 -4 41 C-4 40.34 -4 39.68 -4 39 C-3.28980713 38.9906543 -2.57961426 38.98130859 -1.84790039 38.97167969 C1.41456674 38.91752204 4.67566924 38.83396431 7.9375 38.75 C9.05447266 38.73582031 10.17144531 38.72164062 11.32226562 38.70703125 C21.19704653 38.41744823 28.93406307 36.22652641 36 29 C39.64006104 23.76186339 41.34492781 19.28869307 42 13 C42.66 12.67 43.32 12.34 44 12 C44.66 9.36 45.32 6.72 46 4 C32.14 4 18.28 4 4 4 C3.34 6.64 2.68 9.28 2 12 C1.67 12 1.34 12 1 12 C1.33 9.03 1.66 6.06 2 3 C24.275 2.505 24.275 2.505 47 2 C31.49 1.67 15.98 1.34 0 1 C0 0.67 0 0.34 0 0 Z " fill="#4D4698" transform="translate(32,1)"/>
<path d="M0 0 C0.33 0 0.66 0 1 0 C2.14051606 4.98283716 3.22225866 9.94468132 4 15 C4.99 15.33 5.98 15.66 7 16 C8.10889196 17.25206535 9.16622577 18.55049708 10.1875 19.875 C16.263152 26.9780587 24.1045674 27.61008866 33 29 C33 29.66 33 30.32 33 31 C31.9378125 31.07476562 30.875625 31.14953125 29.78125 31.2265625 C20.20751051 32.05389476 14.16620896 33.28710226 7.5234375 40.6328125 C4.08454334 44.95656831 2.47127332 49.72494687 1 55 C0.34 55 -0.32 55 -1 55 C-1.226875 53.845 -1.45375 52.69 -1.6875 51.5 C-3.90787051 42.83289857 -8.65511301 37.82488392 -16 33 C-16.99 32.34 -17.98 31.68 -19 31 C-25.1330089 29.97557042 -31.29452201 29.7125975 -37.5 29.4375 C-38.4178125 29.39431641 -39.335625 29.35113281 -40.28125 29.30664062 C-42.52072061 29.20166544 -44.76028092 29.09950752 -47 29 C-47 28.34 -47 27.68 -47 27 C-46.28980713 26.9906543 -45.57961426 26.98130859 -44.84790039 26.97167969 C-41.58543326 26.91752204 -38.32433076 26.83396431 -35.0625 26.75 C-33.94552734 26.73582031 -32.82855469 26.72164062 -31.67773438 26.70703125 C-21.80295347 26.41744823 -14.06593693 24.22652641 -7 17 C-3.39187429 11.8078191 -1.52295074 7.27540892 -1 1 C-0.67 0.67 -0.34 0.34 0 0 Z " fill="#F7F7F9" transform="translate(75,13)"/>
<path d="M0 0 C0.33 0 0.66 0 1 0 C1.5897047 8.61624093 1.03306681 16.26203877 -4.765625 23.07421875 C-13.33482098 31.12049136 -21.71313014 31.41991179 -33 31.1875 C-34.25167969 31.17396484 -35.50335938 31.16042969 -36.79296875 31.14648438 C-39.86243116 31.11133786 -42.93098509 31.06213226 -46 31 C-45.46392061 24.92495233 -44.74579431 18.98391321 -43.5625 13 C-43.31628906 11.72125 -43.07007813 10.4425 -42.81640625 9.125 C-42 6 -42 6 -40 4 C-39.83967005 9.87876496 -40.3907466 15.23388095 -41.5 21 C-41.64308594 21.77472656 -41.78617188 22.54945312 -41.93359375 23.34765625 C-42.28272329 25.23295579 -42.64045316 27.11665939 -43 29 C-39.10332753 28.91892198 -35.20819696 28.80609388 -31.3125 28.6875 C-29.65831055 28.65366211 -29.65831055 28.65366211 -27.97070312 28.61914062 C-26.3706543 28.5659668 -26.3706543 28.5659668 -24.73828125 28.51171875 C-23.75899658 28.48553467 -22.77971191 28.45935059 -21.77075195 28.43237305 C-18.58214156 27.93479361 -16.67615101 26.75666327 -14 25 C-13.278125 24.855625 -12.55625 24.71125 -11.8125 24.5625 C-9.84901521 24.17520707 -9.84901521 24.17520707 -9 22.3125 C-8.505 21.1678125 -8.505 21.1678125 -8 20 C-7.360625 19.0925 -6.72125 18.185 -6.0625 17.25 C-2.61751577 11.82154 -0.7987971 6.39037679 0 0 Z " fill="#443C85" transform="translate(72,9)"/>
<path d="M0 0 C7.66752104 -0.06980979 15.33500872 -0.12296748 23.00277615 -0.15543652 C26.56405886 -0.17102777 30.12512258 -0.19214455 33.6862793 -0.22631836 C37.78957099 -0.26544385 41.89263614 -0.27976317 45.99609375 -0.29296875 C47.26206894 -0.30845261 48.52804413 -0.32393646 49.8323822 -0.33988953 C63.39644163 -0.34244959 63.39644163 -0.34244959 69 3 C69.495 4.485 69.495 4.485 70 6 C69.4667511 5.83923477 68.9335022 5.67846954 68.38409424 5.51283264 C65.49930298 4.89229714 62.80632226 4.83667532 59.85449219 4.79467773 C58.61350769 4.77473251 57.37252319 4.75478729 56.09393311 4.73423767 C54.744915 4.71725607 53.39589559 4.70037717 52.046875 4.68359375 C50.66253049 4.66301124 49.27819208 4.64201443 47.89385986 4.62062073 C44.257456 4.56553393 40.62099667 4.51606586 36.98449707 4.46777344 C33.27086475 4.41746036 29.55731256 4.36182558 25.84375 4.30664062 C18.56256794 4.19922296 11.28131906 4.09774192 4 4 C3.34 6.64 2.68 9.28 2 12 C1.67 12 1.34 12 1 12 C1.33 9.03 1.66 6.06 2 3 C24.275 2.505 24.275 2.505 47 2 C23.735 1.505 23.735 1.505 0 1 C0 0.67 0 0.34 0 0 Z " fill="#605B93" transform="translate(32,1)"/>
<path d="M0 0 C16.5 0 33 0 50 0 C46.84274381 2.10483746 46.12625389 2.2472059 42.52856445 2.22705078 C41.17750359 2.22682419 41.17750359 2.22682419 39.79914856 2.22659302 C38.83031235 2.21627045 37.86147614 2.20594788 36.86328125 2.1953125 C35.37141548 2.19106766 35.37141548 2.19106766 33.84941101 2.18673706 C30.6703187 2.17553489 27.49150728 2.15043014 24.3125 2.125 C22.15820719 2.11497025 20.00390997 2.10584439 17.84960938 2.09765625 C12.56631028 2.07559546 7.28317521 2.04211756 2 2 C1.67 4.64 1.34 7.28 1 10 C0.67 10 0.34 10 0 10 C0 6.7 0 3.4 0 0 Z " fill="#2B266A" transform="translate(32,2)"/>
<path d="M0 0 C0.33 0 0.66 0 1 0 C1.33 2.97 1.66 5.94 2 9 C14.87 9.495 14.87 9.495 28 10 C28 10.66 28 11.32 28 12 C18.1 12 8.2 12 -2 12 C-2 4.125 -2 4.125 0 0 Z " fill="#2F276A" transform="translate(13,115)"/>
<path d="M0 0 C-2.87006768 2.94181937 -5.95395938 5.59660129 -9.0625 8.28125 C-10.99834779 9.94794288 -10.99834779 9.94794288 -12.625 11.71875 C-14 13 -14 13 -16 13 C-16.33 13.66 -16.66 14.32 -17 15 C-17.0844017 10.94871816 -16.76702985 8.94441577 -14.17578125 5.75390625 C-9.49431879 1.29499209 -6.52222369 -1.11016573 0 0 Z " fill="#4B428D" transform="translate(97,46)"/>
<path d="M0 0 C0.66 0.33 1.32 0.66 2 1 C-0.20967685 3.71314752 -1.30365748 4.91119179 -4.84082031 5.36230469 C-5.90913086 5.29946289 -6.97744141 5.23662109 -8.078125 5.171875 C-9.81835938 5.08486328 -9.81835938 5.08486328 -11.59375 4.99609375 C-12.8003125 4.91488281 -14.006875 4.83367188 -15.25 4.75 C-16.47203125 4.68425781 -17.6940625 4.61851563 -18.953125 4.55078125 C-21.97031459 4.38577869 -24.98506408 4.20150265 -28 4 C-28 3.34 -28 2.68 -28 2 C-27.25838623 1.97494385 -26.51677246 1.9498877 -25.75268555 1.92407227 C-22.39744672 1.80813868 -19.04249056 1.68540015 -15.6875 1.5625 C-13.93663086 1.50352539 -13.93663086 1.50352539 -12.15039062 1.44335938 C-11.03212891 1.40146484 -9.91386719 1.35957031 -8.76171875 1.31640625 C-7.73006592 1.27974854 -6.69841309 1.24309082 -5.63549805 1.20532227 C-2.89251742 1.09838758 -2.89251742 1.09838758 0 0 Z " fill="#B6B2E0" transform="translate(56,38)"/>
<path d="M0 0 C0.33 0 0.66 0 1 0 C1.50176084 8.93877645 0.37574616 17.37974673 -2 26 C-2.66 26.66 -3.32 27.32 -4 28 C-4.6283815 18.26008676 -2.29192372 9.39279453 0 0 Z " fill="#423A7D" transform="translate(25,46)"/>
<path d="M0 0 C-2.02467874 4.84476699 -5.41054064 6.73926632 -10 9 C-13.5 9.8125 -13.5 9.8125 -16 10 C-14.614012 6.64933828 -13.2243823 5.16628149 -10.125 3.3125 C-9.44695312 2.89613281 -8.76890625 2.47976562 -8.0703125 2.05078125 C-5.37240519 0.68146603 -3.02521248 0 0 0 Z " fill="#423A87" transform="translate(107,68)"/>
<path d="M0 0 C7.87141373 -0.71921547 12.93358441 -0.29819109 19.35546875 4.4921875 C21 6 21 6 22 8 C21.34 8.66 20.68 9.32 20 10 C19.525625 9.401875 19.05125 8.80375 18.5625 8.1875 C15.04573845 5.18538648 11.3955522 4.2463898 7 3 C6.29359375 2.79246094 5.5871875 2.58492187 4.859375 2.37109375 C3.24322182 1.90135817 1.62212664 1.44867333 0 1 C0 0.67 0 0.34 0 0 Z " fill="#443B81" transform="translate(45,44)"/>
<path d="M0 0 C0.33 0 0.66 0 1 0 C1.52610448 7.686971 0.9613348 14.22995958 -3 21 C-3.99 21.66 -4.98 22.32 -6 23 C-5.24323061 17.82874249 -4.34971415 12.62003335 -1.9375 7.9375 C-0.68993878 5.3592068 -0.3847789 2.82171193 0 0 Z " fill="#3D3379" transform="translate(72,9)"/>
<path d="M0 0 C4.43843439 1.39493652 6.9434964 3.51898201 10 7 C10.33 7.99 10.66 8.98 11 10 C11.66 10 12.32 10 13 10 C13 10.66 13 11.32 13 12 C8.40920896 11.54172489 6.63753749 10.03476635 3.6875 6.5625 C2.99011719 5.75941406 2.29273437 4.95632812 1.57421875 4.12890625 C0 2 0 2 0 0 Z " fill="#484085" transform="translate(80,26)"/>
<path d="M0 0 C0.66 0.33 1.32 0.66 2 1 C2 2.65 2 4.3 2 6 C1.34 6 0.68 6 0 6 C-0.4021875 7.1446875 -0.4021875 7.1446875 -0.8125 8.3125 C-1.95134505 10.88988618 -2.81416671 12.26954864 -5 14 C-5.66 14 -6.32 14 -7 14 C-5.70677932 8.2392897 -3.62011357 4.66804118 0 0 Z " fill="#413983" transform="translate(115,53)"/>
<path d="M0 0 C0.66 0.33 1.32 0.66 2 1 C2.20894383 7.47725863 2.00086026 13.7751014 0 20 C-0.66 20.33 -1.32 20.66 -2 21 C-1.85924795 18.06217531 -1.7126162 15.12484829 -1.5625 12.1875 C-1.52318359 11.35412109 -1.48386719 10.52074219 -1.44335938 9.66210938 C-1.40146484 8.85966797 -1.35957031 8.05722656 -1.31640625 7.23046875 C-1.27974854 6.49207764 -1.24309082 5.75368652 -1.20532227 4.99291992 C-1 3 -1 3 0 0 Z " fill="#3D367F" transform="translate(17,93)"/>
<path d="M0 0 C0.33 0 0.66 0 1 0 C1.41467342 8.01701946 -0.14060121 15.21930149 -2 23 C-2.33 23 -2.66 23 -3 23 C-3.49155247 14.93489832 -2.04937325 7.78273888 0 0 Z " fill="#312971" transform="translate(46,88)"/>
<path d="M0 0 C2 2 2 2 2.125 5.125 C2.08375 6.07375 2.0425 7.0225 2 8 C2.66 8 3.32 8 4 8 C4.33 7.01 4.66 6.02 5 5 C4.52060632 9.71403788 4.03165952 13.66579301 2 18 C1.67 18 1.34 18 1 18 C0.67 12.06 0.34 6.12 0 0 Z " fill="#8E8AC4" transform="translate(72,60)"/>
<path d="M0 0 C0.99 0.495 0.99 0.495 2 1 C3.0283474 6.03890228 3.08970351 10.88689982 3 16 C1.51171875 14.91796875 1.51171875 14.91796875 0 13 C-0.29296875 9.86328125 -0.29296875 9.86328125 -0.1875 6.3125 C-0.16042969 5.13300781 -0.13335937 3.95351562 -0.10546875 2.73828125 C-0.07066406 1.83464844 -0.03585938 0.93101563 0 0 Z " fill="#3F3782" transform="translate(77,9)"/>
<path d="M0 0 C0.33 0 0.66 0 1 0 C1.02712153 1.916588 1.04645097 3.8332873 1.0625 5.75 C1.07410156 6.81734375 1.08570313 7.8846875 1.09765625 8.984375 C1.01510087 11.53368501 0.74617558 13.57933591 0 16 C-0.66 16 -1.32 16 -2 16 C-2.2358396 10.22192976 -1.86783046 5.48675196 0 0 Z " fill="#3A3378" transform="translate(20,76)"/>
<path d="M0 0 C3.06813137 4.60219706 2.25317679 9.22776249 1.5 14.5 C1.2525 15.7375 1.2525 15.7375 1 17 C-1 15 -1 15 -1.1875 11.3125 C-1.09629967 7.47507066 -0.63059333 3.78355996 0 0 Z " fill="#3A3279" transform="translate(41,110)"/>
<path d="M0 0 C-2.37524249 2.75028078 -4.6159924 3.76194844 -8 5 C-9.34050052 5.65213539 -10.67661368 6.31379969 -12 7 C-11.64393309 4.41851492 -11.16671807 3.17954253 -9.375 1.25 C-6.16865877 -0.43754802 -3.56651486 -0.20576047 0 0 Z " fill="#453D82" transform="translate(97,46)"/>
<path d="M0 0 C0.99 0 1.98 0 3 0 C3.04254356 1.99954746 3.04080783 4.00041636 3 6 C2.67 6.33 2.34 6.66 2 7 C1.46823602 9.57391641 1.03569201 12.15859517 0.59765625 14.75 C0.40042969 15.4925 0.20320313 16.235 0 17 C-0.66 17.33 -1.32 17.66 -2 18 C-1.34 12.06 -0.68 6.12 0 0 Z " fill="#8A87BC" transform="translate(73,7)"/>
<path d="M0 0 C4.29 0.66 8.58 1.32 13 2 C13 2.66 13 3.32 13 4 C9.37 4 5.74 4 2 4 C1.34 2.68 0.68 1.36 0 0 Z " fill="#C4C6E3" transform="translate(95,40)"/>
<path d="M0 0 C-1.45124634 3.82601307 -3.35774704 5.22329124 -7 7 C-7.99 7 -8.98 7 -10 7 C-9.67 6.01 -9.34 5.02 -9 4 C-8.01 4 -7.02 4 -6 4 C-6 3.34 -6 2.68 -6 2 C-2.25 0 -2.25 0 0 0 Z " fill="#3C357D" transform="translate(107,68)"/>
<path d="M0 0 C13.6332574 -0.3690205 13.6332574 -0.3690205 20 2 C20 2.66 20 3.32 20 4 C18.9275 3.690625 17.855 3.38125 16.75 3.0625 C11.24206217 1.66570282 5.65440039 1.35811202 0 1 C0 0.67 0 0.34 0 0 Z " fill="#2F296D" transform="translate(82,3)"/>
<path d="M0 0 C7.50769231 -0.36923077 7.50769231 -0.36923077 10 1.5 C10.495 2.2425 10.495 2.2425 11 3 C3.49230769 3.36923077 3.49230769 3.36923077 1 1.5 C0.67 1.005 0.34 0.51 0 0 Z " fill="#413D88" transform="translate(94,38)"/>
<path d="M0 0 C1.26934731 2.53869461 1.20149912 4.17901229 1 7 C0 9.3125 0 9.3125 -1 11 C-1.66 11 -2.32 11 -3 11 C-2.25 3.375 -2.25 3.375 0 0 Z " fill="#5F5996" transform="translate(80,56)"/>
<path d="M0 0 C0.33 0 0.66 0 1 0 C1.34615998 5.65394631 0.43425238 9.03006806 -2 14 C-2.98120464 10.94736336 -2.98120464 9.05263664 -2 6 C-1.34 6 -0.68 6 0 6 C0 4.02 0 2.04 0 0 Z " fill="#494381" transform="translate(121,36)"/>
<path d="M0 0 C0.33 0 0.66 0 1 0 C1 3.63 1 7.26 1 11 C0.34 11 -0.32 11 -1 11 C-1.66 11.66 -2.32 12.32 -3 13 C-2.343621 8.51474352 -1.29925791 4.33085971 0 0 Z " fill="#3E3885" transform="translate(72,9)"/>
</svg>
