<?xml version="1.0" encoding="UTF-8"?>
<svg version="1.1" xmlns="http://www.w3.org/2000/svg" width="2767" height="427">
<path d="M0 0 C913.11 0 1826.22 0 2767 0 C2767 140.91 2767 281.82 2767 427 C1853.89 427 940.78 427 0 427 C0 286.09 0 145.18 0 0 Z " fill="#FEFEFE" transform="translate(0,0)"/>
<path d="M0 0 C1.02738281 0.34933594 2.05476563 0.69867188 3.11328125 1.05859375 C17.61591471 6.49473003 29.80238357 16.3785605 38.26171875 29.29296875 C39.31879028 30.90014771 39.31879028 30.90014771 40.3972168 32.53979492 C40.92613525 33.3516626 41.45505371 34.16353027 42 35 C42.26478149 33.41747437 42.26478149 33.41747437 42.53491211 31.80297852 C43.18873821 27.90173631 43.84782981 24.00139924 44.50854492 20.10131836 C44.79417129 18.41080694 45.07835467 16.72005108 45.36108398 15.02905273 C45.76690743 12.60335147 46.17785348 10.1785667 46.58984375 7.75390625 C46.71592514 6.99348526 46.84200653 6.23306427 46.97190857 5.44960022 C47.88612829 0.11387171 47.88612829 0.11387171 49 -1 C51.61688441 -1.09509559 54.207289 -1.12556 56.82446289 -1.11352539 C57.64390884 -1.11367142 58.4633548 -1.11381744 59.30763245 -1.1139679 C62.02933353 -1.11326852 64.75096705 -1.10547501 67.47265625 -1.09765625 C69.35452741 -1.09579216 71.23639906 -1.09436821 73.11827087 -1.09336853 C78.08148529 -1.08954267 83.04467064 -1.07971181 88.00787354 -1.06866455 C93.06839606 -1.0584519 98.12892327 -1.05387122 103.18945312 -1.04882812 C113.12631488 -1.0380896 123.06315503 -1.02101236 133 -1 C131.62557319 6.64593646 130.25043715 14.29174524 128.875 21.9375 C128.67025055 23.07579254 128.4655011 24.21408508 128.25454712 25.38687134 C125.86714243 38.65752662 123.47280309 51.92682103 121.05172729 65.19137573 C117.88349624 82.55466232 114.76105132 99.91795462 112.07348633 117.36279297 C111.14024359 123.33071826 109.96848737 129.23281241 108.74609375 135.1484375 C107.91069984 139.46099456 107.22476412 143.78319464 106.5625 148.125 C105.56529633 154.63255185 104.44601029 161.10044795 103.1875 167.5625 C101.36114761 176.96223488 99.66219868 186.3826319 98 195.8125 C97.87041901 196.54722534 97.74083801 197.28195068 97.60733032 198.03894043 C95.97844018 207.28858693 94.39713348 216.54460306 92.875 225.8125 C91.64444198 233.28704747 90.34496321 240.74410726 88.9375 248.1875 C88.71199463 249.38886597 88.71199463 249.38886597 88.48193359 250.61450195 C87.16593447 257.4637756 85.57174183 264.18911874 84 271 C56.61 271 29.22 271 1 271 C1 266.09903955 1.07772266 262.7826713 2.09375 258.20703125 C2.31933594 257.16482422 2.54492188 256.12261719 2.77734375 255.04882812 C3.01582031 253.98083984 3.25429687 252.91285156 3.5 251.8125 C3.97238996 249.67397789 4.44128888 247.53468084 4.90625 245.39453125 C5.11572266 244.45456299 5.32519531 243.51459473 5.54101562 242.54614258 C6.1182714 239.77510523 6.1182714 239.77510523 6 236 C4.90558594 237.19882812 4.90558594 237.19882812 3.7890625 238.421875 C-16.3319373 259.83761168 -44.55754182 274.05636556 -74.11962891 275.11132812 C-102.98899829 275.62471872 -129.22763558 271.47401242 -151 251 C-168.16512206 234.21917172 -178.11806296 211.69220331 -181 188 C-181.11085938 187.18144531 -181.22171875 186.36289062 -181.3359375 185.51953125 C-186.71002704 138.67780483 -172.37528042 88.34158651 -143.63134766 51.02880859 C-138.78958429 45.0073998 -133.47256513 39.4463571 -128 34 C-127.08605469 33.08605469 -126.17210937 32.17210937 -125.23046875 31.23046875 C-105.82567561 12.7566402 -79.69595187 -0.5794583 -53 -4 C-52.11441406 -4.12246094 -51.22882813 -4.24492187 -50.31640625 -4.37109375 C-33.70952972 -6.15749083 -15.79041495 -5.67377882 0 0 Z " fill="#4C469B" transform="translate(1267,134)"/>
<path d="M0 0 C7.08627924 -0.09522696 14.16705771 -0.06927915 21.25292969 0.04589844 C22.46311768 0.06475098 22.46311768 0.06475098 23.69775391 0.08398438 C34.17450665 0.30791497 43.97704609 1.94915882 54.12890625 4.51513672 C56.10889398 5.00990607 58.09866873 5.46504284 60.08886719 5.91699219 C75.30197248 9.56619122 89.34316364 16.25359259 102.25292969 25.04589844 C103.39375 25.82126953 103.39375 25.82126953 104.55761719 26.61230469 C116.83272821 35.58257813 126.89072396 46.79318484 134.25292969 60.04589844 C134.8884375 61.17769531 135.52394531 62.30949219 136.17871094 63.47558594 C140.71678075 72.04641586 143.68085585 80.74222511 146.25292969 90.04589844 C146.50042969 90.88894531 146.74792969 91.73199219 147.00292969 92.60058594 C148.1755866 97.04691005 148.32760819 101.21751585 148.29589844 105.81542969 C148.28969482 106.98307861 148.28349121 108.15072754 148.27709961 109.35375977 C148.26912354 110.24216553 148.26114746 111.13057129 148.25292969 112.04589844 C136.54427924 112.37088285 124.83670785 112.61932537 113.12445927 112.77126884 C107.68510778 112.8442145 102.24884986 112.9430551 96.8112793 113.10205078 C91.55900903 113.25465955 86.30970417 113.33796859 81.0553875 113.37417984 C79.0555596 113.39996629 77.05588687 113.45033191 75.05732918 113.52611923 C59.80291359 114.08134802 59.80291359 114.08134802 55.52848434 110.66941071 C52.19747416 106.88676282 50.19546502 102.66062702 48.25292969 98.04589844 C46.64236797 94.52972058 45.81481721 93.60053443 42.25292969 92.04589844 C40.93168851 91.12075831 39.61976095 90.18223059 38.31542969 89.23339844 C20.58804943 77.39589696 -3.07329989 75.61208056 -23.61816406 79.36621094 C-41.04908616 83.15270338 -55.58125549 90.33324623 -69.74707031 101.04589844 C-70.47152344 101.58472656 -71.19597656 102.12355469 -71.94238281 102.67871094 C-95.91184001 121.99013596 -107.72435137 155.46681804 -111.08691406 185.03417969 C-113.21940506 207.55679011 -110.59122446 228.93913188 -97.74707031 248.04589844 C-97.31007813 248.69945312 -96.87308594 249.35300781 -96.42285156 250.02636719 C-86.2290053 263.40387714 -67.82212411 270.28785492 -51.93457031 273.29589844 C-36.25577454 275.40796923 -20.07798556 274.95945061 -4.74707031 271.04589844 C-3.11318359 270.66304688 -3.11318359 270.66304688 -1.44628906 270.27246094 C11.5518812 266.81263051 22.99002602 259.72302014 33.01855469 250.89355469 C35.25292969 249.04589844 35.25292969 249.04589844 37.42480469 248.04199219 C39.80101189 246.7472639 40.13279302 245.47869526 41.25292969 243.04589844 C42.55695929 241.4383447 43.89466793 239.85789946 45.25292969 238.29589844 C51.40502146 230.91538574 56.95028304 222.65119173 61.25292969 214.04589844 C26.93292969 214.04589844 -7.38707031 214.04589844 -42.74707031 214.04589844 C-42.74707031 203.91211159 -42.74707031 203.91211159 -42.19628906 200.31933594 C-42.07632568 199.52269531 -41.9563623 198.72605469 -41.83276367 197.90527344 C-41.63565796 196.67550781 -41.63565796 196.67550781 -41.43457031 195.42089844 C-41.29994385 194.55207031 -41.16531738 193.68324219 -41.02661133 192.78808594 C-40.00133388 186.3063784 -38.77522792 179.88476591 -37.43847656 173.45996094 C-36.57572534 169.19982215 -35.86199786 164.92360257 -35.17675781 160.63183594 C-34.75497625 158.09347783 -34.25170886 155.56909116 -33.74707031 153.04589844 C26.31292969 153.04589844 86.37292969 153.04589844 148.25292969 153.04589844 C143.85917116 181.60532886 143.85917116 181.60532886 141.31933594 194.46386719 C140.49077421 198.7064462 139.74811169 202.95898892 139.03027344 207.22167969 C138.81814209 208.46578613 138.60601074 209.70989258 138.38745117 210.99169922 C137.97573008 213.41957051 137.57239093 215.84888378 137.17895508 218.27978516 C135.33457047 229.05841522 131.80392553 237.75768158 126.00292969 246.98339844 C125.51840332 247.76336182 125.03387695 248.5433252 124.53466797 249.34692383 C109.16979281 273.84691568 89.06078022 295.57059678 65.25292969 312.04589844 C64.67591309 312.45163086 64.09889648 312.85736328 63.50439453 313.27539062 C30.54132592 336.24877818 -9.44622826 349.54411181 -49.65649414 349.30664062 C-51.81262179 349.29588321 -53.96792002 349.30664005 -56.12402344 349.31933594 C-95.60483476 349.36534368 -133.59420088 335.88786321 -161.99707031 308.23339844 C-168.08874071 302.09752727 -172.99756609 295.24675968 -177.74707031 288.04589844 C-178.32199219 287.18222656 -178.89691406 286.31855469 -179.48925781 285.42871094 C-187.55361689 272.68451654 -192.88301831 257.81822066 -195.74707031 243.04589844 C-195.9994043 241.89118042 -195.9994043 241.89118042 -196.25683594 240.71313477 C-198.24676896 230.60975294 -198.14189076 220.48860725 -198.12207031 210.23339844 C-198.12219116 209.27702484 -198.12231201 208.32065125 -198.12243652 207.33529663 C-198.0963562 192.85844305 -197.21259552 179.14934835 -193.74707031 165.04589844 C-193.45117373 163.66398488 -193.15932354 162.28119698 -192.87207031 160.89746094 C-184.90322007 124.16278384 -165.48731758 90.15398493 -139.74707031 63.04589844 C-139.27575684 62.54735352 -138.80444336 62.04880859 -138.31884766 61.53515625 C-126.60770767 49.22929533 -113.67014972 39.25243977 -99.38818359 30.09912109 C-97.98865443 29.20094067 -96.59918066 28.28712392 -95.21191406 27.37011719 C-67.62377779 9.81403047 -32.42793193 0.54181045 0 0 Z " fill="#201F2F" transform="translate(1621.7470703125,58.9541015625)"/>
<path d="M0 0 C0.598125 0.45890625 1.19625 0.9178125 1.8125 1.390625 C21.8425686 17.03911609 32.65727729 43.18912106 36.59423828 67.57861328 C37.35036424 73.95427467 37.30161239 80.34039839 37.25 86.75 C37.24623352 87.45953827 37.24246704 88.16907654 37.23858643 88.90011597 C37.01061456 125.50816827 25.99714778 161.12898037 3 190 C2.51160645 190.61327148 2.02321289 191.22654297 1.52001953 191.85839844 C-20.24228371 218.79173808 -49.51738006 236.20549732 -82.375 246.3125 C-83.19524658 246.56733154 -84.01549316 246.82216309 -84.8605957 247.0847168 C-89.6378086 248.50246095 -94.20337738 249.38766805 -99.17431641 249.77807617 C-101.09579463 249.90789035 -101.09579463 249.90789035 -103 251 C-122.04951528 253.15972795 -143.14243734 253.87885183 -162 250 C-163.47919922 249.70802734 -163.47919922 249.70802734 -164.98828125 249.41015625 C-184.30320992 245.08668215 -202.36742184 236.38290146 -217 223 C-217.85078125 222.23042969 -218.7015625 221.46085938 -219.578125 220.66796875 C-235.00361948 206.02321248 -243.92937022 187.3900359 -249 167 C-249.17295593 166.33143982 -249.34591187 165.66287964 -249.52410889 164.97406006 C-250.88145603 159.39829877 -251.32060606 154.14495683 -251.3359375 148.41796875 C-251.3425943 147.52370682 -251.3492511 146.62944489 -251.35610962 145.70808411 C-251.36617827 143.82144198 -251.37092845 141.93476466 -251.37060547 140.0480957 C-251.37493072 137.23259744 -251.41117862 134.41873251 -251.44921875 131.60351562 C-251.55531429 114.78192865 -248.85979742 98.92503226 -243.375 83 C-242.86404785 81.50327759 -242.86404785 81.50327759 -242.34277344 79.97631836 C-235.24801781 59.87504292 -224.65097929 41.57186455 -209.9375 26.078125 C-207.92141227 23.9710238 -207.92141227 23.9710238 -205.9609375 21.4296875 C-203.02390933 17.79058088 -199.59105334 14.97849494 -196 12 C-195.02160156 11.17242187 -194.04320312 10.34484375 -193.03515625 9.4921875 C-140.7488083 -33.78116138 -54.55783244 -44.86663852 0 0 Z " fill="#4C469B" transform="translate(877,157)"/>
<path d="M0 0 C1.72351181 -0.00422974 1.72351181 -0.00422974 3.48184204 -0.00854492 C4.75435822 -0.00652069 6.02687439 -0.00449646 7.33795166 -0.00241089 C8.68331957 -0.00376518 10.02868712 -0.00554527 11.37405396 -0.00772095 C15.04471835 -0.01230072 18.71535479 -0.01050121 22.38601971 -0.00734186 C26.24127465 -0.00481069 30.09652719 -0.00715888 33.95178223 -0.00872803 C40.44867378 -0.01055187 46.94555401 -0.00814237 53.44244385 -0.00338745 C60.90208923 0.00200986 68.36170709 0.00032678 75.82135177 -0.00521386 C82.24967484 -0.00979402 88.67798976 -0.01037049 95.10631394 -0.00777519 C98.93385405 -0.00623317 102.76138137 -0.00595961 106.58892059 -0.00931168 C133.90985294 -0.02968598 133.90985294 -0.02968598 146.62115479 0.51028442 C147.41415859 0.54062712 148.2071624 0.57096981 149.02419662 0.60223198 C154.71756128 0.89295344 160.14477571 1.90519437 165.70611572 3.12698364 C166.97455322 3.38737427 168.24299072 3.64776489 169.54986572 3.91604614 C184.68024681 7.37534267 198.69726046 13.10974477 210.70611572 23.12698364 C211.48084229 23.74057739 212.25556885 24.35417114 213.05377197 24.98635864 C228.79162043 38.05174227 237.13748233 56.9245968 239.50982666 76.97610474 C242.56214931 110.42257557 232.67078921 144.79274505 211.54595947 170.94729614 C187.84935739 199.02097759 154.64008032 217.82715994 117.67593384 221.42164612 C108.66967533 222.10228939 99.70856602 222.25877114 90.68267822 222.22463989 C89.2005315 222.22276855 87.71838414 222.22134805 86.23623657 222.22035217 C82.38619191 222.21658328 78.53618662 222.20680304 74.68615723 222.19564819 C70.7370863 222.18531112 66.78800885 222.18082855 62.83892822 222.17581177 C55.12797302 222.16517409 47.41704994 222.14816779 39.70611572 222.12698364 C39.64997101 222.83729736 39.59382629 223.54761108 39.53598022 224.27944946 C39.07862922 229.72087727 38.46871333 234.99793261 37.32330322 240.34573364 C35.71063032 248.08656359 34.24575552 255.84780845 32.83111572 263.62698364 C32.64085312 264.66884323 32.64085312 264.66884323 32.44674683 265.73175049 C30.21160168 277.99501353 28.17507773 290.28527869 26.26715088 302.60354614 C26.07556396 303.82686646 25.88397705 305.05018677 25.68658447 306.31057739 C25.52053711 307.38879761 25.35448975 308.46701782 25.18341064 309.57791138 C24.70611572 312.12698364 24.70611572 312.12698364 23.70611572 314.12698364 C23.40432036 315.74651915 23.14047567 317.37316939 22.89361572 319.00198364 C21.38023617 328.08226094 19.51146838 337.10022037 17.70611572 346.12698364 C-10.01388428 346.12698364 -37.73388428 346.12698364 -66.29388428 346.12698364 C-65.18425233 333.92103219 -65.18425233 333.92103219 -63.91888428 328.68948364 C-62.61290402 322.90132841 -61.63978218 317.12429595 -60.79388428 311.25198364 C-59.75626899 304.07960167 -58.55362245 296.97007777 -57.17669678 289.85354614 C-55.72768464 282.23852491 -54.47247702 274.58694928 -53.18304443 266.94363403 C-52.14256578 260.83238894 -51.03120182 254.74773879 -49.78997803 248.67385864 C-48.25928284 241.1265044 -47.0366999 233.54831256 -45.85638428 225.93948364 C-44.35336626 216.38216082 -42.72030462 206.87774283 -40.7411499 197.40579224 C-39.2039759 189.94370762 -38.03528663 182.4354247 -36.8661499 174.90823364 C-35.4441584 165.84511271 -33.78554631 156.83550602 -32.0836792 147.82131958 C-30.68976939 140.39506102 -29.44793684 132.96077186 -28.31707764 125.49050903 C-27.62783466 121.01459355 -26.78881686 116.61026655 -25.79388428 112.18948364 C-24.32952088 105.6684904 -23.3661665 99.1206641 -22.41888428 92.51004028 C-21.71228492 87.66643052 -20.87557859 82.90446684 -19.79388428 78.12698364 C-18.35727071 71.76697564 -17.36804449 65.38593718 -16.47161865 58.93167114 C-15.64738896 53.10904271 -14.60470169 47.33850718 -13.50448608 41.56291199 C-12.53081931 36.4369961 -11.61257133 31.30338395 -10.72357178 26.16213989 C-10.59520935 25.42280212 -10.46684692 24.68346436 -10.33459473 23.92172241 C-9.8099361 20.89819467 -9.28626131 17.8745166 -8.76800537 14.84988403 C-8.38176408 12.59916785 -7.99059904 10.34935441 -7.59857178 8.09963989 C-7.42356644 7.06710838 -7.42356644 7.06710838 -7.24502563 6.01371765 C-6.22415491 0.19566743 -5.83844436 0.00219201 0 0 Z " fill="#4C469A" transform="translate(101.29388427734375,62.873016357421875)"/>
<path d="M0 0 C27.72 0 55.44 0 84 0 C83.04841112 6.66112215 82.01835474 13.30531104 80.953125 19.94873047 C80.7366982 21.30172002 80.52150145 22.65490697 80.30761719 24.00830078 C78.95043893 32.59465923 77.40904936 41.11071063 75.66943359 49.62890625 C74.82052978 53.90376541 74.13452176 58.18909762 73.5 62.5 C72.63193142 68.19985771 71.66854619 73.85202677 70.5 79.5 C69.1787843 85.89963853 68.12443363 92.31431929 67.1315918 98.77075195 C65.88189212 106.87029065 64.45597455 114.93534662 63 123 C63.4640625 122.47792969 63.928125 121.95585937 64.40625 121.41796875 C83.32775921 101.26091323 113.50797908 87.1557518 141.13525391 85.85205078 C144.67455222 85.75127178 148.20932493 85.70433859 151.75 85.6875 C152.87462646 85.68186035 153.99925293 85.6762207 155.15795898 85.67041016 C166.11452799 85.76530007 176.25243108 87.26630302 186.5 91.1875 C187.31533203 91.49647217 188.13066406 91.80544434 188.97070312 92.1237793 C209.612126 100.17483309 223.14007504 113.81477965 232 134 C237.12583713 146.940638 238.44011625 159.71547485 238.4375 173.5625 C238.43889984 174.28031647 238.44029968 174.99813293 238.44174194 175.73770142 C238.42060186 189.06643047 236.53359253 201.55149662 233.70556641 214.57958984 C232.4457668 220.68678448 231.48863125 226.84412275 230.5 233 C228.82376227 243.43085703 226.9379676 253.81366292 225.00256348 264.19911194 C222.601251 277.09999234 220.29855824 290.01798654 218 302.9375 C217.58341766 305.27540565 217.16675103 307.61329629 216.75 309.95117188 C216.54342773 311.11041168 216.33685547 312.26965149 216.12402344 313.46401978 C215.71088581 315.78175659 215.29747819 318.0994453 214.88378906 320.41708374 C213.90261078 325.91727199 212.92514176 331.41804005 211.95996094 336.92106152 C211.61428766 338.89046813 211.26711553 340.85961147 210.91992188 342.82875061 C210.48119717 345.31743206 210.04490624 347.80654407 209.61132812 350.29612732 C209.41474609 351.40827103 209.21816406 352.52041473 209.015625 353.66625977 C208.75700684 355.1422036 208.75700684 355.1422036 208.49316406 356.64796448 C208 359 208 359 207 361 C179.61 361 152.22 361 124 361 C128.1878398 332.73208137 128.1878398 332.73208137 130.22973633 322.85546875 C130.98419855 319.07909237 131.64143471 315.300556 132.26171875 311.5 C132.37256805 310.82709427 132.48341736 310.15418854 132.59762573 309.46089172 C133.16748154 306.0012912 133.72943736 302.54047987 134.28686523 299.07885742 C134.59732788 297.17390503 134.59732788 297.17390503 134.9140625 295.23046875 C135.0992041 294.07957764 135.2843457 292.92868652 135.47509766 291.74291992 C136 289 136 289 137 287 C137.469344 284.05389482 137.90161226 281.11056339 138.3125 278.15625 C139.97422514 266.65962384 142.21772219 255.30940131 144.52050781 243.92724609 C146.44909001 234.36242269 148.26496201 224.80105117 149.7265625 215.15234375 C149.85111816 214.33580322 149.97567383 213.5192627 150.10400391 212.67797852 C152.07900392 199.19804237 151.92342263 185.03882308 144.5703125 173.0625 C139.40268726 166.27517132 133.05744376 161.69527168 125 159 C124.3503125 158.77570313 123.700625 158.55140625 123.03125 158.3203125 C108.87770055 154.34643131 92.13793557 156.55931962 79.1875 163.25 C77.76842277 164.13025467 76.37281105 165.04920124 75 166 C74.18015625 166.56460938 73.3603125 167.12921875 72.515625 167.7109375 C55.45017855 180.38073865 48.52724412 200.14606165 45.4375 220.4375 C45.28341675 221.52623413 45.28341675 221.52623413 45.1262207 222.63696289 C44.2473064 228.81908802 43.03944616 234.91239188 41.79614258 241.03100586 C40.48323201 247.52467131 39.30680335 254.04394405 38.125 260.5625 C37.99682892 261.2669928 37.86865784 261.9714856 37.73660278 262.69732666 C35.65679729 274.14273975 33.71141253 285.60576941 31.82910156 297.08544922 C30.25991315 306.59786432 28.52911377 316.07398433 26.74072266 325.54736328 C25.34023412 333.01253723 24.07053338 340.4865126 22.98779297 348.00463867 C22.31448861 352.54654548 21.28019983 356.51930058 20 361 C-7.39 361 -34.78 361 -63 361 C-62.37980085 353.55761023 -61.715407 346.43551882 -60.43359375 339.12890625 C-60.27908752 338.22426132 -60.1245813 337.31961639 -59.96539307 336.38755798 C-59.46128146 333.44495263 -58.94963401 330.50371882 -58.4375 327.5625 C-58.08084568 325.49353962 -57.7244867 323.42452831 -57.3684082 321.35546875 C-56.25509888 314.90197922 -55.12939757 308.45069134 -54 302 C-53.81574463 300.9470575 -53.63148926 299.89411499 -53.44165039 298.80926514 C-52.19741608 291.70490697 -50.94534527 284.60196029 -49.6875 277.5 C-49.52305389 276.56995148 -49.35860779 275.63990295 -49.18917847 274.68167114 C-47.68133584 266.16763561 -46.15644459 257.66327354 -44.42578125 249.19140625 C-42.6285386 240.34501188 -41.27223416 231.43709343 -39.89453125 222.51757812 C-38.72894352 215.11201276 -37.34215251 207.81036877 -35.72753906 200.49047852 C-34.46787827 194.44706564 -33.5636423 188.35000456 -32.625 182.25 C-30.88447199 171.12885321 -28.92053689 160.07561595 -26.73925781 149.03100586 C-25.35075827 141.95881921 -24.11033176 134.88185079 -23.07568359 127.74902344 C-22.29588382 122.48065083 -21.26827407 117.27727486 -20.20785522 112.05848694 C-18.67649057 104.4784593 -17.33519936 96.86660335 -16 89.25 C-15.8689386 88.5064325 -15.7378772 87.76286499 -15.60284424 86.99676514 C-13.98549428 77.81898693 -12.43829857 68.63546961 -11.04077148 59.42138672 C-10.07957229 53.21261651 -8.82973388 47.07616574 -7.5546875 40.92529297 C-5.9090601 32.8494707 -4.62744234 24.72369363 -3.39477539 16.57568359 C-3.24129639 15.57617676 -3.08781738 14.57666992 -2.9296875 13.546875 C-2.79804199 12.66870117 -2.66639648 11.79052734 -2.53076172 10.88574219 C-1.85687802 7.22184832 -0.90353025 3.614121 0 0 Z " fill="#4C469B" transform="translate(380,44)"/>
<path d="M0 0 C3.7621864 -0.03960196 7.51202601 0.0018409 11.2734375 0.0859375 C11.95019531 0.09850586 12.62695312 0.11107422 13.32421875 0.12402344 C24.13974127 0.36983077 33.89645607 2.08264101 44.2734375 5.0859375 C45.37171875 5.37339844 46.47 5.66085938 47.6015625 5.95703125 C61.75902461 9.87997334 73.98275629 16.78188642 85.2734375 26.0859375 C86.04945313 26.68664062 86.82546875 27.28734375 87.625 27.90625 C106.063469 42.95673177 116.32288557 67.9376989 119.2734375 91.0859375 C119.59177524 96.0266799 119.65457303 100.94829213 119.6484375 105.8984375 C119.64855835 106.57447021 119.6486792 107.25050293 119.64880371 107.94702148 C119.60337355 125.90144202 115.91033283 141.69758001 111.2734375 159.0859375 C48.9034375 159.0859375 -13.4665625 159.0859375 -77.7265625 159.0859375 C-77.96051485 182.12942925 -77.96051485 182.12942925 -66.58203125 201.32421875 C-53.95905223 211.64809126 -40.34405752 211.89873236 -24.7265625 211.0859375 C-13.50623598 209.68178642 -1.90939037 203.06824413 5.4765625 194.54296875 C6.15203125 193.67027344 6.8275 192.79757812 7.5234375 191.8984375 C11.26681498 187.09256002 11.26681498 187.09256002 12.2734375 186.0859375 C15.04282716 185.99075947 17.78720909 185.96039485 20.55688477 185.97241211 C21.85920547 185.97219307 21.85920547 185.97219307 23.18783569 185.9719696 C26.07186336 185.97266904 28.9558273 185.98046287 31.83984375 185.98828125 C33.83381617 185.99014532 35.82778905 185.99156927 37.82176208 185.99256897 C43.08089452 185.99639502 48.33999953 186.00622605 53.59912109 186.01727295 C58.96125925 186.0274852 64.32340181 186.03206619 69.68554688 186.03710938 C80.21485583 186.04784824 90.74414439 186.0649257 101.2734375 186.0859375 C100.03803184 188.601087 98.79775417 191.1136394 97.5546875 193.625 C97.21083008 194.32633057 96.86697266 195.02766113 96.51269531 195.75024414 C85.56778402 217.80551305 68.18011755 238.8527619 47.2734375 252.0859375 C46.04125842 252.89912132 44.80952028 253.71297351 43.578125 254.52734375 C26.27607133 265.80991385 7.55857748 273.97241884 -12.84765625 277.54296875 C-15.65605585 277.9366437 -15.65605585 277.9366437 -17.7265625 279.0859375 C-26.87409324 280.21534956 -36.08659745 280.24010538 -45.2890625 280.2109375 C-46.51302734 280.21480469 -47.73699219 280.21867187 -48.99804688 280.22265625 C-77.85043965 280.19194588 -105.8035366 272.61871867 -127.7265625 253.0859375 C-128.47292969 252.42207031 -129.21929688 251.75820313 -129.98828125 251.07421875 C-149.43975384 232.70904132 -160.20666215 205.75592528 -161.0625 179.1953125 C-161.65504473 131.30604205 -146.73302712 83.02349059 -113.05737305 47.92675781 C-82.6698362 17.37856475 -42.88129112 0.98887673 0 0 Z " fill="#201F2F" transform="translate(1922.7265625,128.9140625)"/>
<path d="M0 0 C16.96280762 15.92849008 23.57708106 37.53484198 24.53125 60.13671875 C24.87421737 74.14886797 23.34345151 87.82173349 21.25 101.65625 C21.06050781 102.92984375 20.87101562 104.2034375 20.67578125 105.515625 C19.89632472 110.42931895 18.93166491 115.27757652 17.81640625 120.125 C15.29941029 131.37336814 13.31700032 142.70798867 11.56640625 154.09765625 C10.42904401 161.46282499 9.26856153 168.79511396 7.75 176.09375 C6.33789753 182.89550011 5.29229924 189.72467007 4.33984375 196.60522461 C3.61120915 201.73930409 2.55184129 206.63704159 1.25 211.65625 C-0.76580329 221.32366265 -2.32594244 231.04603237 -3.65991211 240.82910156 C-3.77343018 241.63057617 -3.88694824 242.43205078 -4.00390625 243.2578125 C-4.14807983 244.31476318 -4.14807983 244.31476318 -4.29516602 245.39306641 C-4.86131024 248.21011252 -5.84135991 250.93032973 -6.75 253.65625 C-34.14 253.65625 -61.53 253.65625 -89.75 253.65625 C-86.53372093 231.14229651 -86.53372093 231.14229651 -84.5 221.4609375 C-83.62876621 217.04124108 -82.9294155 212.60872164 -82.25 208.15625 C-81.19217974 201.23496511 -79.92033719 194.39272176 -78.5 187.53515625 C-77.63644272 183.06894596 -76.93409724 178.59026412 -76.25 174.09375 C-75.23494502 167.4324517 -73.97358552 160.88600411 -72.5 154.30859375 C-71.44081336 149.15057546 -70.66682365 143.95849712 -69.875 138.75390625 C-69.12174703 133.85776192 -68.2550359 129.00868895 -67.25 124.15625 C-60.67113473 93.68782595 -60.67113473 93.68782595 -70.0234375 64.875 C-76.4460774 56.62147181 -84.905941 51.94462487 -95.12109375 49.97265625 C-112.75752599 47.84999501 -129.35572998 51.33360604 -143.79296875 61.87890625 C-153.45319341 70.07344165 -159.80814967 80.68800761 -163.75 92.65625 C-164.08644531 93.65527344 -164.42289063 94.65429688 -164.76953125 95.68359375 C-167.45071537 104.28949184 -168.79306872 112.86772898 -170.03515625 121.7734375 C-170.79876064 127.17627901 -171.88642436 132.47472311 -173 137.81640625 C-173.86567437 142.24847865 -174.56831058 146.69287077 -175.25 151.15625 C-176.12117105 156.85572781 -177.08140867 162.50805856 -178.25 168.15625 C-179.39162789 173.68101917 -180.33731423 179.2064768 -181.1875 184.78125 C-182.88133856 195.85089046 -185.02284356 206.82678669 -187.17236328 217.81542969 C-188.94624471 226.91124302 -190.45696144 236.00771241 -191.74829102 245.18383789 C-191.86487061 245.99715576 -191.9814502 246.81047363 -192.1015625 247.6484375 C-192.25359131 248.73680908 -192.25359131 248.73680908 -192.40869141 249.84716797 C-192.75 251.65625 -192.75 251.65625 -193.75 253.65625 C-221.14 253.65625 -248.53 253.65625 -276.75 253.65625 C-276.75 243.64086538 -276.75 243.64086538 -275.4375 238.34375 C-274.08523503 232.47123779 -273.0975506 226.62168073 -272.25 220.65625 C-271.26918941 213.80465143 -270.02912528 207.09738667 -268.5 200.34375 C-267.57622106 195.80183689 -266.90722375 191.24312408 -266.25 186.65625 C-265.43039405 180.93608347 -264.52706334 175.29661307 -263.25 169.65625 C-261.78535049 163.17975293 -260.81958616 156.67878295 -259.875 150.11157227 C-258.9620181 143.84849267 -257.7918167 137.69277697 -256.5 131.49609375 C-255.63432637 127.06402514 -254.93162283 122.61963702 -254.25 118.15625 C-253.38254792 112.47602019 -252.42312802 106.84609845 -251.25 101.21875 C-249.8000199 94.24358256 -248.73989127 87.23450824 -247.75195312 80.17993164 C-247.63529297 79.36129639 -247.51863281 78.54266113 -247.3984375 77.69921875 C-247.29708496 76.96727295 -247.19573242 76.23532715 -247.09130859 75.48120117 C-246.75 73.65625 -246.75 73.65625 -245.75 71.65625 C-245.49908604 70.3146321 -245.28877115 68.96526102 -245.1015625 67.61328125 C-244.92657227 66.38508667 -244.92657227 66.38508667 -244.74804688 65.13208008 C-244.62494141 64.25318115 -244.50183594 63.37428223 -244.375 62.46875 C-243.29797055 55.02703358 -242.01934729 47.68792629 -240.49609375 40.32421875 C-238.6845042 31.41802719 -237.18051542 22.45521522 -235.77734375 13.4765625 C-235.60710693 12.39101074 -235.43687012 11.30545898 -235.26147461 10.18701172 C-234.93095325 8.06694204 -234.60464756 5.9462089 -234.28344727 3.82470703 C-233.11167552 -3.70889232 -231.47621691 -10.86347671 -229.75 -18.34375 C-202.36 -18.34375 -174.97 -18.34375 -146.75 -18.34375 C-147.875 -4.84375 -147.875 -4.84375 -148.50390625 -0.359375 C-148.63603516 0.59453125 -148.76816406 1.5484375 -148.90429688 2.53125 C-149.10635742 3.954375 -149.10635742 3.954375 -149.3125 5.40625 C-149.45107422 6.40140625 -149.58964844 7.3965625 -149.73242188 8.421875 C-150.0686941 10.83375855 -150.40790702 13.24518642 -150.75 15.65625 C-150.01450928 14.87399048 -150.01450928 14.87399048 -149.26416016 14.07592773 C-133.14736657 -2.8906442 -111.33288091 -13.92594235 -88.75 -19.34375 C-87.80769531 -19.570625 -86.86539063 -19.7975 -85.89453125 -20.03125 C-55.65616338 -25.90753202 -23.61226958 -20.12409339 0 0 Z " fill="#201F2E" transform="translate(2310.75,151.34375)"/>
<path d="M0 0 C31.02 0 62.04 0 94 0 C105.51884621 21.88580781 105.51884621 21.88580781 109.0703125 28.82421875 C109.48111053 29.62503372 109.89190857 30.42584869 110.31515503 31.25093079 C111.163884 32.90604821 112.0121275 34.56141467 112.85986328 36.21704102 C114.13044967 38.69814168 115.40300919 41.1782231 116.67578125 43.65820312 C117.5157545 45.29680862 118.35559967 46.93547978 119.1953125 48.57421875 C119.60082336 49.36464569 120.00633423 50.15507263 120.4241333 50.9694519 C122.42299864 54.87585747 124.397318 58.79189308 126.32714844 62.73291016 C126.69299042 63.47724808 127.0588324 64.221586 127.4357605 64.98847961 C128.12335256 66.39177959 128.80586059 67.79758589 129.48245239 69.20622253 C131.04543885 72.73500603 131.04543885 72.73500603 134 75 C134.33837891 73.96552734 134.33837891 73.96552734 134.68359375 72.91015625 C136.31016015 69.31433438 138.58638678 66.47055951 141.0625 63.4375 C142.06616147 62.18443989 143.06875085 60.93052037 144.0703125 59.67578125 C144.81716309 58.74306396 144.81716309 58.74306396 145.57910156 57.79150391 C149.15982267 53.27684213 152.56040224 48.62231658 156 44 C162.75435727 34.95099089 169.54782964 25.93170176 176.375 16.9375 C177.04088135 16.05715088 177.7067627 15.17680176 178.39282227 14.26977539 C179.35466431 13.00508423 179.35466431 13.00508423 180.3359375 11.71484375 C180.89845215 10.97355225 181.4609668 10.23226074 182.04052734 9.46850586 C182.68715332 8.65389893 183.3337793 7.83929199 184 7 C184.39252079 6.42435555 184.78504158 5.84871109 185.18945694 5.25562286 C188.7834242 0.39009239 188.7834242 0.39009239 191.98362923 -0.63604641 C194.33027754 -0.86011486 196.58654153 -0.8669972 198.94287109 -0.79467773 C200.26091736 -0.79621101 200.26091736 -0.79621101 201.60559082 -0.79777527 C204.49612487 -0.79291686 207.38345882 -0.7385613 210.2734375 -0.68359375 C212.28266677 -0.67053127 214.2919184 -0.66057017 216.30117798 -0.65357971 C221.57893886 -0.62690538 226.8553423 -0.55818768 232.13256836 -0.48065186 C237.52178586 -0.40892953 242.91122362 -0.37704897 248.30078125 -0.34179688 C258.86778256 -0.2668167 269.43377822 -0.14740967 280 0 C279.05675699 1.26662306 278.1122554 2.53230892 277.16723633 3.79760742 C276.64140457 4.5025383 276.11557281 5.20746918 275.57380676 5.9337616 C273.37863522 8.81578489 271.05079132 11.56810251 268.6875 14.3125 C265.26629776 18.3185033 261.88162678 22.3459219 258.5625 26.4375 C254.60491812 31.30129025 250.53457554 36.05881231 246.44165039 40.80834961 C243.41054711 44.33298919 240.43014684 47.89039882 237.5 51.5 C234.06791987 55.7279248 230.55448829 59.8752789 227 64 C222.68065728 69.01314773 218.44902723 74.08537515 214.27734375 79.22265625 C211.71795946 82.34396367 209.11406209 85.4245003 206.5 88.5 C203.12716411 92.46903543 199.78823355 96.46017021 196.5 100.5 C192.75573645 105.10009522 188.93779126 109.63166095 185.09692383 114.15087891 C181.34455684 118.57357037 177.65802844 123.04612979 174.0234375 127.56640625 C172 130 172 130 170.0390625 132.02734375 C168.09927365 133.9492412 168.09927365 133.9492412 166 137 C167.1229938 142.11668699 169.77829981 146.61238148 172.25 151.1875 C173.16103073 152.89666958 174.07113436 154.60633356 174.98046875 156.31640625 C175.71402588 157.6933667 175.71402588 157.6933667 176.46240234 159.09814453 C179.19564368 164.25649742 181.8780897 169.44111391 184.5625 174.625 C185.14386719 175.74672607 185.72523438 176.86845215 186.32421875 178.02416992 C190.77831308 186.62470587 195.21164207 195.23586321 199.64285278 203.84820557 C200.00821136 204.55829773 200.37356995 205.26838989 200.75 206 C201.29888382 207.06683014 201.29888382 207.06683014 201.8588562 208.1552124 C205.91520162 216.03740478 209.98137121 223.91321381 214.125 231.75 C218.13409037 239.3397081 222.1200139 246.94134018 226.08050537 254.55651855 C226.77325067 255.88695548 227.46745012 257.21663631 228.16314697 258.54553223 C229.13608741 260.40466379 230.10380935 262.26642193 231.0703125 264.12890625 C231.63508301 265.21244385 232.19985352 266.29598145 232.78173828 267.41235352 C234 270 234 270 234 272 C221.9609249 272.18533049 209.92218886 272.32749194 197.88197803 272.41449738 C192.29116765 272.4562556 186.70133283 272.51289604 181.11108398 272.60351562 C175.71639611 272.69041818 170.32264662 272.73826935 164.92731285 272.75901794 C162.86868194 272.77380419 160.81010264 272.80267968 158.75187111 272.84584045 C155.86836307 272.90390416 152.98873456 272.91191438 150.10473633 272.90820312 C149.25309402 272.93696533 148.40145172 272.96572754 147.52400208 272.99536133 C145.10102072 272.96160577 143.27247271 272.84831044 141 272 C138.74478151 269.58660125 137.38676114 266.97682101 136 264 C135.35878785 262.80662471 134.71369221 261.61531525 134.06225586 260.42749023 C133.44289243 259.22301507 132.82719583 258.01664855 132.21484375 256.80859375 C131.87680725 256.14915268 131.53877075 255.48971161 131.19049072 254.81028748 C130.47265291 253.40904153 129.75638211 252.00699184 129.04159546 250.60418701 C127.54285933 247.66305355 126.03616617 244.72602133 124.52998352 241.78869629 C123.77151745 240.30932735 123.01344941 238.82975427 122.25578308 237.34997559 C118.92480125 230.84516332 115.56582515 224.35537406 112.1875 217.875 C111.71497803 216.96548584 111.24245605 216.05597168 110.75561523 215.11889648 C108.80639998 211.3823373 106.83357597 207.69087485 104.67578125 204.0703125 C103 201 103 201 103 198 C99.01052164 201.78711352 95.74664461 205.81825389 92.5 210.25 C91.43303006 211.68934974 90.36529677 213.12813387 89.296875 214.56640625 C88.75095703 215.30262207 88.20503906 216.03883789 87.64257812 216.79736328 C85.04231008 220.28422688 82.39745126 223.73640202 79.75 227.1875 C78.66402411 228.60543935 77.57808763 230.02340888 76.4921875 231.44140625 C75.93112305 232.17375488 75.37005859 232.90610352 74.79199219 233.66064453 C71.48339001 237.97985789 68.1775281 242.30114033 64.875 246.625 C64.25463867 247.43477295 63.63427734 248.2445459 62.99511719 249.07885742 C62.37540039 249.8907251 61.75568359 250.70259277 61.1171875 251.5390625 C60.49110092 252.3310202 59.86501434 253.12297791 59.21995544 253.93893433 C57.56415653 256.22209241 56.24983023 258.3080885 54.92158508 260.76304626 C49.18734799 270.75017286 49.18734799 270.75017286 43.86108398 272.8387146 C37.70921692 274.11244314 31.47657199 273.72260121 25.23828125 273.46484375 C23.23626193 273.43682305 21.23413886 273.41549176 19.23197937 273.40052795 C13.99307043 273.34358387 8.76052402 273.19658011 3.52410889 273.02996826 C-1.83135899 272.87577427 -7.18786829 272.80785894 -12.54492188 272.73242188 C-23.03272516 272.57214193 -33.51583117 272.3165796 -44 272 C-42.3027423 267.37835703 -39.81992989 264.19204672 -36.5625 260.5625 C-32.30210711 255.71439998 -28.19697469 250.79416001 -24.25 245.6875 C-20.616712 240.9991165 -16.85785731 236.50524307 -12.87109375 232.109375 C-10.25869581 229.16429173 -7.83619571 226.08308964 -5.39453125 222.99609375 C-2.32269124 219.15253536 0.8058391 215.35737035 3.9375 211.5625 C4.54698486 210.82370605 5.15646973 210.08491211 5.78442383 209.32373047 C6.97896053 207.87577802 8.17353936 206.42786032 9.36816406 204.97998047 C12.92521442 200.66405012 16.46207083 196.3316091 20 192 C27.02777304 183.39565431 34.08669009 174.81730071 41.15185547 166.24365234 C42.98890239 164.01347253 44.82472564 161.7822914 46.66015625 159.55078125 C47.25666992 158.82624756 47.85318359 158.10171387 48.46777344 157.35522461 C49.64640873 155.92164889 50.82287972 154.48629074 51.99707031 153.04907227 C54.65449198 149.80393698 57.33374376 146.59730887 60.13671875 143.4765625 C60.61270508 142.93749268 61.08869141 142.39842285 61.57910156 141.84301758 C62.84066963 140.42159949 64.12078377 139.01670113 65.40234375 137.61328125 C67.4959826 134.18872284 66.92106719 132.84167569 66 129 C64.89512432 126.31817196 64.89512432 126.31817196 63.4375 123.66796875 C62.89625488 122.63833008 62.35500977 121.60869141 61.79736328 120.54785156 C61.2042334 119.43893555 60.61110352 118.33001953 60 117.1875 C59.05610127 115.39663949 58.11223723 113.60576026 57.16970825 111.81417847 C56.50234029 110.54648585 55.83392146 109.27934598 55.16452026 108.01272583 C52.60181977 103.16112117 50.07729283 98.2907647 47.5703125 93.41015625 C47.01449493 92.32815193 47.01449493 92.32815193 46.44744873 91.22428894 C44.98802122 88.38177155 43.52956597 85.53875601 42.07128906 82.69564819 C38.0322352 74.82543997 33.95557807 66.97929665 29.76052856 59.19085693 C27.50793606 54.99820962 25.36326595 50.76392968 23.25 46.5 C19.89971961 39.7450491 16.43670836 33.05402735 12.9375 26.375 C0 1.66324013 0 1.66324013 0 0 Z " fill="#201F2E" transform="translate(2477,133)"/>
<path d="M0 0 C27.72 0 55.44 0 84 0 C83.01 5.61 82.02 11.22 81 17 C80.50915148 20.08262358 80.02602997 23.16356876 79.5625 26.25 C77.45675152 39.91088221 74.71034587 53.44827064 72 67 C89.82 67 107.64 67 126 67 C124.87521891 78.24781086 124.87521891 78.24781086 123.94921875 83.6953125 C123.74723877 84.89486572 123.54525879 86.09441895 123.3371582 87.33032227 C123.01557739 89.20868774 123.01557739 89.20868774 122.6875 91.125 C122.35001577 93.11215332 122.01336607 95.09944694 121.67674255 97.08674622 C121.44960269 98.42697821 121.22203332 99.76713749 120.99403381 101.10722351 C120.25793823 105.4418023 119.54690204 109.77980428 118.8515625 114.12109375 C118.67536377 115.21212402 118.49916504 116.3031543 118.31762695 117.42724609 C117.98895789 119.46725004 117.66435867 121.50791526 117.34448242 123.54931641 C117.19599854 124.46245605 117.04751465 125.3755957 116.89453125 126.31640625 C116.70661011 127.49891968 116.70661011 127.49891968 116.51489258 128.70532227 C116 131 116 131 114 136 C95.85 136 77.7 136 59 136 C59 138.31 59 140.62 59 143 C58.69628906 145.35742188 58.69628906 145.35742188 58.265625 147.46875 C58.10594238 148.2740918 57.94625977 149.07943359 57.78173828 149.90917969 C57.51852783 151.19163574 57.51852783 151.19163574 57.25 152.5 C56.87598076 154.39030451 56.50364018 156.2809418 56.1328125 158.171875 C55.94235352 159.14060547 55.75189453 160.10933594 55.55566406 161.10742188 C54.68408748 165.64452177 53.90279272 170.19603783 53.125 174.75 C51.86752125 182.08876987 50.56446734 189.41780335 49.2142334 196.74003601 C47.91782131 203.7726767 46.64710177 210.80979069 45.38653564 217.84893799 C44.99743872 220.01425347 44.60416246 222.17878135 44.21044922 224.34326172 C43.57150347 227.86812111 42.95312917 231.39608325 42.34860229 234.92700195 C42.01021232 236.87860235 41.65393843 238.82707549 41.29711914 240.77539062 C40.10305198 247.87954032 39.56143003 254.10158548 42 261 C44.47487404 264.41361937 46.98757807 265.8145117 51 267 C56.27946005 267.76065352 61.44330374 268.16573841 66.78125 268.31640625 C67.82968079 268.3475779 67.82968079 268.3475779 68.89929199 268.37937927 C71.09944259 268.44398535 73.29969696 268.50333909 75.5 268.5625 C77.00521842 268.60577017 78.51042693 268.64938693 80.015625 268.69335938 C83.67697744 268.79957319 87.33844234 268.90108196 91 269 C88.9019321 283.80560849 86.78296146 298.57066032 83.7578125 313.21875 C82.754514 318.2248992 81.87287495 323.24918568 81.00195312 328.27978516 C80.38099477 331.86401852 79.72162982 335.43479591 79 339 C71.41879382 339.04672497 63.83760292 339.08207025 56.25628471 339.10362434 C52.73444337 339.11397895 49.21270187 339.12798205 45.69091797 339.15087891 C41.62466578 339.17714452 37.55851537 339.1865414 33.4921875 339.1953125 C32.25201874 339.20563507 31.01184998 339.21595764 29.73410034 339.22659302 C9.09416871 339.22919087 -13.6484027 335.03280555 -29.04296875 320.15234375 C-41.3329316 306.6358377 -46.5995702 289.49466101 -46.5625 271.4375 C-46.5615332 270.25293213 -46.56056641 269.06836426 -46.55957031 267.84790039 C-46.18013142 247.69995507 -41.59987367 227.6484306 -37.26098633 208.04003906 C-36.01957986 202.37896215 -35.21487662 196.7462214 -34.58984375 190.98046875 C-34.13572459 187.44375587 -33.36800264 183.9968781 -32.6015625 180.515625 C-30.79289729 172.25033732 -29.44807789 163.93047143 -28.12231445 155.57641602 C-27.81290648 153.63501856 -27.4983034 151.69445134 -27.18359375 149.75390625 C-27.00368896 148.62283447 -26.82378418 147.4917627 -26.63842773 146.32641602 C-25.96878868 142.83737889 -24.97600636 139.41602226 -24 136 C-34.89 136 -45.78 136 -57 136 C-54.60672383 118.0504287 -54.60672383 118.0504287 -53.5625 111.4375 C-53.37300781 110.2316626 -53.37300781 110.2316626 -53.1796875 109.00146484 C-52.42878611 104.33714047 -51.54435827 99.7343928 -50.5 95.125 C-48.411257 85.84169779 -47.28486629 76.42235281 -46 67 C-34.78 67 -23.56 67 -12 67 C-11.34 62.05 -10.68 57.1 -10 52 C-9.42838536 48.75752217 -8.83764527 45.53779033 -8.1875 42.3125 C-6.21733063 32.28168117 -4.42079111 22.22362136 -2.6628418 12.15356445 C-2.46086182 11.00718506 -2.25888184 9.86080566 -2.05078125 8.6796875 C-1.87200439 7.65601074 -1.69322754 6.63233398 -1.5090332 5.57763672 C-1 3 -1 3 0 0 Z " fill="#4C469A" transform="translate(980,66)"/>
<path d="M0 0 C27.72 0 55.44 0 84 0 C80.56227558 24.06407092 80.56227558 24.06407092 79 31.8125 C78.65743199 33.5663828 78.31498518 35.32028927 77.97265625 37.07421875 C77.80781738 37.90872559 77.64297852 38.74323242 77.47314453 39.60302734 C75.47918883 49.70450159 73.69134838 59.81327777 72.12695312 69.98901367 C71.17364135 76.10630555 70.02427097 82.15613928 68.74609375 88.21484375 C67.22829954 95.91506673 66.04824532 103.67560571 64.81640625 111.42578125 C64.61080078 112.71806641 64.40519531 114.01035156 64.19335938 115.34179688 C63.77412824 117.97682503 63.35801714 120.61228851 62.94335938 123.24804688 C61.69133833 131.09170521 60.25601922 138.86316819 58.66723633 146.64428711 C57.99203727 150.04004671 57.40605253 153.43355262 56.89889526 156.85780334 C55.81697265 164.14961626 54.57356644 171.39112121 53.15625 178.625 C50.69700233 191.36098462 48.56449057 204.14867848 46.42456055 216.94140625 C43.17027154 236.36481389 43.17027154 236.36481389 41.44140625 244.6953125 C39.65624812 253.74204882 38.36787456 262.88083629 37 272 C9.28 272 -18.44 272 -47 272 C-47 266.72737319 -46.74857328 263.03212254 -45.65625 258.03515625 C-43.72656814 248.91558418 -42.31725819 239.72858772 -40.89453125 230.51757812 C-39.71354418 223.01417299 -38.31029144 215.61199304 -36.67382812 208.19506836 C-35.75528861 203.83966015 -35.10219278 199.47082487 -34.5 195.0625 C-33.47839887 187.92277838 -32.22204662 180.90106736 -30.75 173.83984375 C-29.88432563 169.40777135 -29.18168942 164.96337923 -28.5 160.5 C-27.44188589 153.57748134 -26.16912035 146.7340817 -24.75 139.875 C-23.73265305 134.61870743 -22.9332034 129.33641056 -22.125 124.04467773 C-21.37328593 119.18643194 -20.50361113 114.37669716 -19.5 109.5625 C-18.3188108 103.85239884 -17.39262518 98.14350587 -16.5625 92.375 C-15.43763459 84.58123656 -14.06420755 76.8651634 -12.55102539 69.13818359 C-11.05390039 61.43645679 -9.76815281 53.70734945 -8.50463867 45.96435547 C-7.25535628 38.37289301 -5.84256405 30.82233829 -4.3659668 23.2722168 C-3.1608402 17.04119882 -2.19384979 10.81696611 -1.39453125 4.51953125 C-1 2 -1 2 0 0 Z " fill="#201F2E" transform="translate(2385,133)"/>
<path d="M0 0 C10.24782057 8.83571931 16.92058793 20.08759992 17.984375 33.7109375 C19.09678559 58.32906741 14.05344069 80.49176863 -2.015625 99.7109375 C-2.55960938 100.40058594 -3.10359375 101.09023438 -3.6640625 101.80078125 C-8.09088555 107.21480663 -13.12059938 110.99113063 -19.015625 114.7109375 C-19.71300781 115.16339844 -20.41039062 115.61585938 -21.12890625 116.08203125 C-35.78218339 124.94022703 -52.36767926 127.62934712 -69.015625 123.7109375 C-75.99856863 121.64374881 -81.51815442 118.45092779 -87.015625 113.7109375 C-87.62277344 113.20949219 -88.22992187 112.70804687 -88.85546875 112.19140625 C-97.0583204 104.81422457 -102.15464531 92.91014735 -103.30078125 81.99536133 C-103.41677408 79.16428641 -103.43199966 76.35652516 -103.390625 73.5234375 C-103.38119873 72.51748535 -103.37177246 71.5115332 -103.36206055 70.47509766 C-102.89672317 47.31946465 -94.10471438 25.34884789 -77.33203125 9.11328125 C-56.43660485 -9.28468383 -24.06928718 -17.82575028 0 0 Z " fill="#FDFDFE" transform="translate(1275.015625,211.2890625)"/>
<path d="M0 0 C9.59820806 6.5646607 15.45972612 17.20053321 18.1875 28.375 C22.3559186 51.6898837 15.80909031 77.34274817 3 97 C-7.80865667 112.23857141 -22.63860488 124.44861111 -41.3125 128.0625 C-56.82711466 130.56173458 -70.30197762 127.49053632 -83.17578125 118.4765625 C-91.36462456 111.32267278 -96.47052626 98.54663859 -97.21704102 87.90649414 C-98.17230942 60.03501839 -93.36202818 35.44081998 -74.6875 13.8125 C-67.4661388 6.10155499 -59.75301358 0.11501024 -50 -4 C-49.12085938 -4.39316406 -48.24171875 -4.78632813 -47.3359375 -5.19140625 C-31.31520596 -11.52467065 -14.52597656 -8.47674912 0 0 Z " fill="#FDFDFD" transform="translate(809,209)"/>
<path d="M0 0 C7.00274779 6.25005321 11.51918012 15.00015708 12.16796875 24.4453125 C12.27790051 39.52794954 7.78939396 53.00412651 -2.83984375 64.04296875 C-17.88828897 77.6763703 -34.09513133 81.74963827 -54 81 C-64.1263461 80.04853124 -74.1686182 75.69991934 -81 68 C-88.31541351 57.643537 -90.59690892 47.51321448 -89 35 C-85.79832153 21.20021768 -77.19511622 8.63009893 -65.32714844 0.91210938 C-45.96234366 -11.06114837 -19.23645192 -14.70238353 0 0 Z " fill="#201F2F" transform="translate(2479,24)"/>
<path d="M0 0 C0.99 0.33 1.98 0.66 3 1 C3.05945801 1.97271851 3.05945801 1.97271851 3.12011719 2.96508789 C4.63773813 26.64123233 8.44611127 47.9613159 25 66 C26.01320312 67.15048828 26.01320312 67.15048828 27.046875 68.32421875 C44.73924983 87.34029315 67.87882401 91.94005405 92.609375 92.8515625 C94.07288198 92.90205712 95.53641094 92.95194302 97 93 C97 93.66 97 94.32 97 95 C95.86739746 95.06731323 95.86739746 95.06731323 94.71191406 95.13598633 C91.22379209 95.34993087 87.73700754 95.58112594 84.25 95.8125 C83.06277344 95.88275391 81.87554687 95.95300781 80.65234375 96.02539062 C60.09939004 97.42928091 40.33115554 104.67706899 26 120 C8.95682815 140.41753535 6.52601252 161.23410511 6 187 C3.25549395 182.88324093 2.90070607 179.97601446 2.76147461 175.09912109 C2.03872621 152.14768509 -7.13002783 130.80649098 -23.8828125 114.8359375 C-42.70678866 98.51256334 -63.92733425 94.07529796 -88.109375 93.68359375 C-89.74860931 93.6524221 -89.74860931 93.6524221 -91.42095947 93.62062073 C-94.86391778 93.5559685 -98.30694303 93.49663832 -101.75 93.4375 C-104.1041732 93.39423429 -106.45833998 93.35061764 -108.8125 93.30664062 C-114.5415988 93.2003755 -120.27076208 93.09846316 -126 93 C-126 92.34 -126 91.68 -126 91 C-125.32063385 90.98969254 -124.6412677 90.97938507 -123.9413147 90.96876526 C-116.83530162 90.86012276 -109.72940069 90.74557612 -102.62353516 90.62768555 C-99.9757727 90.58452078 -97.3279857 90.54283367 -94.68017578 90.50268555 C-90.86222965 90.4445333 -87.04440494 90.38097093 -83.2265625 90.31640625 C-82.05324371 90.29969376 -80.87992493 90.28298126 -79.67105103 90.26576233 C-69.94418844 90.09260699 -60.81011835 89.76597642 -51.625 86.375 C-50.52828979 85.97414185 -50.52828979 85.97414185 -49.40942383 85.56518555 C-31.11442213 78.64009496 -15.84792414 65.40200393 -7.1875 47.6875 C-6.4207887 45.80653699 -5.6927196 43.90945218 -5 42 C-4.61972656 40.98550781 -4.23945313 39.97101563 -3.84765625 38.92578125 C0.19246578 26.31657479 -0.16588189 13.12325932 0 0 Z " fill="#FBFBFD" transform="translate(209,80)"/>
<path d="M0 0 C7.78536543 6.45146427 11.60127375 14.03892557 13.37109375 23.96484375 C13.80867644 29.29772998 13.7757002 34.63199803 13.37109375 39.96484375 C12.37109375 40.96484375 12.37109375 40.96484375 10.62383938 41.08789158 C9.85782941 41.08696979 9.09181944 41.08604799 8.30259705 41.08509827 C6.98792702 41.08716026 6.98792702 41.08716026 5.646698 41.08926392 C4.1933757 41.083871 4.1933757 41.083871 2.71069336 41.07836914 C1.69617599 41.07851517 0.68165863 41.07866119 -0.36360168 41.07881165 C-3.73460998 41.07811204 -7.10556379 41.07031743 -10.4765625 41.0625 C-12.80683868 41.06063599 -15.13711525 41.05921201 -17.46739197 41.05821228 C-23.6142789 41.05438577 -29.76114238 41.04455435 -35.90802002 41.0335083 C-42.17500491 41.02329704 -48.44199357 41.01871527 -54.70898438 41.01367188 C-67.01563533 41.0029322 -79.32226884 40.98585419 -91.62890625 40.96484375 C-89.47432826 26.27748028 -79.65048625 11.97818747 -67.90209961 3.18945312 C-47.8449905 -10.95242799 -21.009499 -14.7659629 0 0 Z " fill="#FCFCFB" transform="translate(1944.62890625,205.03515625)"/>
<path d="M0 0 C10.08505929 17.92428606 3.51345251 47.35410496 -1.42578125 65.87890625 C-3.75669219 73.93746315 -7.33735986 81.4747741 -11 89 C-11.66 89 -12.32 89 -13 89 C-12.38981873 86.17324188 -11.51361405 83.90464576 -10.125 81.375 C-7.74970242 76.75349711 -6.37065847 71.99547215 -5 67 C-4.67 65.88625 -4.34 64.7725 -4 63.625 C-3.67 62.42875 -3.34 61.2325 -3 60 C-2.75121094 59.22140625 -2.50242187 58.4428125 -2.24609375 57.640625 C0.69057089 47.59638072 0.76244253 37.3883239 1 27 C1.02964844 25.84757812 1.05929687 24.69515625 1.08984375 23.5078125 C1.1857137 15.64647664 0.59931785 7.83394047 0 0 Z " fill="#544F8C" transform="translate(337,125)"/>
<path d="M0 0 C1.69175662 3.38351324 0.35837966 7.07086515 -0.25 10.6875 C-0.38986328 11.54601562 -0.52972656 12.40453125 -0.67382812 13.2890625 C-1.71872377 19.5959214 -2.95076435 25.85394281 -4.25 32.11328125 C-5.12022722 36.62305253 -5.81571072 41.14655098 -6.5 45.6875 C-7.59339105 52.91373521 -9.01766399 59.95638055 -11 67 C-11.33 67 -11.66 67 -12 67 C-12.22551601 60.1217616 -11.63948157 53.70153052 -10 47 C-9.505 46.505 -9.505 46.505 -9 46 C-8.79103683 44.19188816 -8.63219639 42.37783968 -8.5 40.5625 C-8.10992366 35.21984733 -8.10992366 35.21984733 -7 33 C-6.48472018 30.06437727 -6.00876029 27.13366793 -5.5625 24.1875 C-5.42980713 23.33687988 -5.29711426 22.48625977 -5.16040039 21.60986328 C-4.55365767 17.70595774 -3.96536148 13.80103463 -3.4296875 9.88671875 C-3.26726562 8.72785156 -3.10484375 7.56898437 -2.9375 6.375 C-2.73447266 4.83972656 -2.73447266 4.83972656 -2.52734375 3.2734375 C-2.35332031 2.52320312 -2.17929687 1.77296875 -2 1 C-1.34 0.67 -0.68 0.34 0 0 Z " fill="#514D8C" transform="translate(454,95)"/>
<path d="M0 0 C0.33 0 0.66 0 1 0 C3.21544673 8.5303622 3.39294497 16.99397817 3.375 25.75 C3.3764502 26.47089813 3.37790039 27.19179626 3.37939453 27.93453979 C3.37658304 40.62440293 1.96225031 52.63524981 -1 65 C-1.33 65 -1.66 65 -2 65 C-2.265625 48.53125 -2.265625 48.53125 0 44 C0.08934406 42.58026727 0.11758978 41.15642209 0.11352539 39.73388672 C0.11344986 38.85312469 0.11337433 37.97236267 0.11329651 37.06491089 C0.10813522 36.11278717 0.10297394 35.16066345 0.09765625 34.1796875 C0.0962413 33.20589142 0.09482635 32.23209534 0.09336853 31.22879028 C0.08775973 28.11082927 0.07520573 24.9929394 0.0625 21.875 C0.05748613 19.76432395 0.05292303 17.65364678 0.04882812 15.54296875 C0.03778745 10.36195479 0.02104073 5.18098248 0 0 Z " fill="#54508B" transform="translate(615,192)"/>
<path d="M0 0 C0.33 0 0.66 0 1 0 C1 15.84 1 31.68 1 48 C1.66 48 2.32 48 3 48 C3 49.32 3 50.64 3 52 C2.34 52 1.68 52 1 52 C-3.0884913 35.37346872 -3.81289569 16.74950607 0 0 Z " fill="#4B4687" transform="translate(1087,279)"/>
<path d="M0 0 C0.33 0 0.66 0 1 0 C1.02687279 1.81242052 1.04633715 3.62495233 1.0625 5.4375 C1.07410156 6.44683594 1.08570313 7.45617187 1.09765625 8.49609375 C1 11 1 11 0 12 C-0.14702587 14.05286766 -0.22763625 16.11054128 -0.28125 18.16796875 C-0.33732422 20.09866211 -0.33732422 20.09866211 -0.39453125 22.06835938 C-0.4300844 23.44139603 -0.46523906 24.81444306 -0.5 26.1875 C-0.76501888 36.1551547 -1.20231815 46.0609229 -2 56 C-2.33 56 -2.66 56 -3 56 C-3.07490245 50.11420381 -3.12895322 44.2286932 -3.16479492 38.3425293 C-3.1797576 36.34573525 -3.20013511 34.34897336 -3.22631836 32.35229492 C-3.36929217 21.15828676 -3.40067607 10.77967029 0 0 Z " fill="#56548E" transform="translate(629,259)"/>
<path d="M0 0 C0.66 0.33 1.32 0.66 2 1 C1.34675358 5.14084572 0.68937272 9.28101025 0.02856445 13.4206543 C-0.19450842 14.82152637 -0.41655576 16.22256222 -0.63745117 17.6237793 C-4.52553593 42.27193394 -4.52553593 42.27193394 -8 54 C-8.33 54 -8.66 54 -9 54 C-9.12757809 49.20670884 -8.72698858 44.98753327 -7.6875 40.3125 C-6.15949103 33.0852348 -5.02618369 25.84143512 -4.00268555 18.52661133 C-3.88578369 17.70700928 -3.76888184 16.88740723 -3.6484375 16.04296875 C-3.54708496 15.31102295 -3.44573242 14.57907715 -3.34130859 13.82495117 C-3 12 -3 12 -2 10 C-1.69208131 7.66922657 -1.49104726 5.33758104 -1.28125 2.99609375 C-1 1 -1 1 0 0 Z " fill="#4D498A" transform="translate(133,320)"/>
<path d="M0 0 C0.33 0 0.66 0 1 0 C1.45457561 7.34055436 0.65237305 14.3814964 -0.4375 21.625 C-0.639198 22.97706543 -0.639198 22.97706543 -0.8449707 24.35644531 C-1.86587495 30.86587495 -1.86587495 30.86587495 -3 32 C-3.23363881 33.84891946 -3.41303635 35.70488031 -3.5625 37.5625 C-3.64628906 38.57441406 -3.73007812 39.58632813 -3.81640625 40.62890625 C-3.90728516 41.80259766 -3.90728516 41.80259766 -4 43 C-4.66 42.67 -5.32 42.34 -6 42 C-5.46538854 32.42061484 -4.14145691 23.12369835 -2.4375 13.6875 C-2.20059815 12.34971085 -1.96426723 11.01182046 -1.72851562 9.67382812 C-1.15791437 6.44818428 -0.58166322 3.22366408 0 0 Z " fill="#595791" transform="translate(328,335)"/>
<path d="M0 0 C0 0.66 0 1.32 0 2 C-0.70495605 2.04487549 -1.40991211 2.08975098 -2.13623047 2.13598633 C-5.38339806 2.34953879 -8.62907106 2.58090844 -11.875 2.8125 C-13.53789063 2.91788086 -13.53789063 2.91788086 -15.234375 3.02539062 C-21.42895879 3.48087473 -26.995496 4.31917881 -32.87109375 6.3671875 C-36.01136314 7.30062538 -38.7484814 7.21205556 -42 7 C-39.08999769 4.08999769 -35.59089006 3.77584399 -31.6875 2.9375 C-30.87804932 2.7612207 -30.06859863 2.58494141 -29.23461914 2.40332031 C-19.51882692 0.37043034 -9.90801216 -0.16793241 0 0 Z " fill="#4B4987" transform="translate(1236,129)"/>
<path d="M0 0 C0 0.66 0 1.32 0 2 C-1.75029762 1.68917128 -3.50022694 1.37626821 -5.25 1.0625 C-6.71179688 0.80146484 -6.71179688 0.80146484 -8.203125 0.53515625 C-11 0 -11 0 -12.875 -0.546875 C-24.69410863 -3.0671261 -36.68825961 -0.41026897 -48 3 C-48 2.01 -48 1.02 -48 0 C-33.87497523 -3.59546085 -13.61602387 -6.80801194 0 0 Z " fill="#514E8E" transform="translate(511,202)"/>
<path d="M0 0 C1.04734608 3.23054634 0.9059091 5.34090283 0.125 8.625 C-0.86699368 13.10561576 -1.40436612 17.49385069 -1.75390625 22.06640625 C-2 24 -2 24 -3 25 C-3.23287008 26.68183948 -3.41264166 28.3712416 -3.5625 30.0625 C-3.68818359 31.44115234 -3.68818359 31.44115234 -3.81640625 32.84765625 C-3.87699219 33.55792969 -3.93757813 34.26820313 -4 35 C-4.99 35 -5.98 35 -7 35 C-2.72997712 2.72997712 -2.72997712 2.72997712 0 0 Z " fill="#524F8E" transform="translate(512,364)"/>
<path d="M0 0 C3.9299437 5.89491554 0.69756107 15.36087489 -0.59423828 22.10009766 C-1.99224846 29.08187017 -3.47550876 36.04483538 -5 43 C-5.33 43 -5.66 43 -6 43 C-6.26759223 36.01286966 -5.57187283 29.7954746 -4 23 C-2.28774571 15.33853567 -0.67488582 7.82867556 0 0 Z " fill="#4F4A88" transform="translate(1384,205)"/>
<path d="M0 0 C0.99 0.33 1.98 0.66 3 1 C3.99862699 8.36487404 4.10331031 15.57313685 4 23 C3.67 23 3.34 23 3 23 C2.67 21.02 2.34 19.04 2 17 C1.67 19.64 1.34 22.28 1 25 C0.67 25 0.34 25 0 25 C0 16.75 0 8.5 0 0 Z " fill="#8F8DCB" transform="translate(209,80)"/>
<path d="M0 0 C0.99 0.33 1.98 0.66 3 1 C4.85594728 1.08840088 6.71495117 1.11762704 8.57299805 1.11352539 C9.71395432 1.11344986 10.85491058 1.11337433 12.03044128 1.11329651 C13.87742363 1.10555458 13.87742363 1.10555458 15.76171875 1.09765625 C17.02264847 1.0962413 18.28357819 1.09482635 19.5827179 1.09336853 C22.93151709 1.08871575 26.28024811 1.07973342 29.62902832 1.06866455 C33.04760143 1.05842687 36.46618159 1.05386586 39.88476562 1.04882812 C46.58986261 1.03779099 53.29492737 1.02104686 60 1 C60 1.66 60 2.32 60 3 C40.2 3 20.4 3 0 3 C0 2.01 0 1.02 0 0 Z " fill="#403A7F" transform="translate(999,402)"/>
<path d="M0 0 C0.66 0 1.32 0 2 0 C1.67 10.89 1.34 21.78 1 33 C-1 31 -1 31 -1.24291992 28.25024414 C-1.23881104 27.10676514 -1.23470215 25.96328613 -1.23046875 24.78515625 C-1.22853516 23.54185547 -1.22660156 22.29855469 -1.22460938 21.01757812 C-1.21236328 19.71240234 -1.20011719 18.40722656 -1.1875 17.0625 C-1.1865332 15.11053711 -1.1865332 15.11053711 -1.18554688 13.11914062 C-1.14034598 3.42103795 -1.14034598 3.42103795 0 0 Z " fill="#605D94" transform="translate(935,319)"/>
<path d="M0 0 C0.33 0 0.66 0 1 0 C2.65248255 6.47929917 3.28639037 12.32750225 3.1875 19 C3.18685547 19.85722656 3.18621094 20.71445313 3.18554688 21.59765625 C3.14089311 27.85910689 3.14089311 27.85910689 2 29 C1.76712992 30.68183948 1.58735834 32.3712416 1.4375 34.0625 C1.35371094 34.98160156 1.26992188 35.90070313 1.18359375 36.84765625 C1.12300781 37.55792969 1.06242188 38.26820313 1 39 C0.67 39 0.34 39 0 39 C0 26.13 0 13.26 0 0 Z " fill="#484589" transform="translate(827,234)"/>
<path d="M0 0 C0.33 0.99 0.66 1.98 1 3 C-4.61 8.61 -10.22 14.22 -16 20 C-16.99 19.67 -17.98 19.34 -19 19 C-12.66666667 12.66666667 -6.33333333 6.33333333 0 0 Z " fill="#504D90" transform="translate(682,168)"/>
<path d="M0 0 C0.66 0 1.32 0 2 0 C6.60385788 9.84197647 10.97828513 19.25963973 13 30 C12.01 29.67 11.02 29.34 10 29 C9.296875 26.76953125 9.296875 26.76953125 8.75 23.8125 C7.28078523 17.18912099 4.61561143 11.85756409 1.42578125 5.93359375 C0 3 0 3 0 0 Z " fill="#55518D" transform="translate(898,184)"/>
<path d="M0 0 C0.66 0 1.32 0 2 0 C2.23019559 6.52220837 1.38031513 12.48268609 0.125 18.875 C-0.04902344 19.82375 -0.22304687 20.7725 -0.40234375 21.75 C-0.57636719 22.65492187 -0.75039062 23.55984375 -0.9296875 24.4921875 C-1.08679199 25.31058105 -1.24389648 26.12897461 -1.40576172 26.97216797 C-2 29 -2 29 -4 31 C-4.02689216 29.52093108 -4.04634621 28.04172517 -4.0625 26.5625 C-4.07410156 25.73878906 -4.08570313 24.91507813 -4.09765625 24.06640625 C-4 22 -4 22 -3 21 C-2.81230502 19.35841378 -2.67578371 17.71089362 -2.5625 16.0625 C-2.1190237 10.5977275 -1.19444343 5.34600409 0 0 Z " fill="#4E4A89" transform="translate(1056,94)"/>
<path d="M0 0 C0.33 0 0.66 0 1 0 C1.32316334 6.46326683 0.4314794 11.68600957 -1.265625 17.9140625 C-2.37339811 22.56906653 -2.72783305 27.23238586 -3 32 C-3.66 32 -4.32 32 -5 32 C-5 33.98 -5 35.96 -5 38 C-5.33 38 -5.66 38 -6 38 C-6.26596277 31.67895156 -5.2509619 25.77126153 -4.125 19.5625 C-3.95097656 18.56412109 -3.77695312 17.56574219 -3.59765625 16.53710938 C-2.60710937 10.95702864 -1.44969276 5.4787938 0 0 Z " fill="#484486" transform="translate(531,255)"/>
<path d="M0 0 C0.66 0 1.32 0 2 0 C2.14695312 0.71542969 2.29390625 1.43085938 2.4453125 2.16796875 C4.28470929 10.33954186 7.27014881 17.51615619 11 25 C10.34 25.33 9.68 25.66 9 26 C7.86988348 23.7941576 6.74584212 21.58554973 5.625 19.375 C5.30789063 18.75753906 4.99078125 18.14007813 4.6640625 17.50390625 C1.72445452 11.68593213 -0.31630251 6.64235269 0 0 Z " fill="#514E8E" transform="translate(936,353)"/>
<path d="M0 0 C0.66 0.99 1.32 1.98 2 3 C1.30375103 4.72404506 0.59387823 6.44497752 -0.2109375 8.12109375 C-1.17115048 10.17671836 -1.17115048 10.17671836 -1.4375 13.3125 C-2.35803106 19.34709251 -4.61635513 24.92453269 -8 30 C-7.36751294 24.60609349 -6.1445912 19.62657464 -4.5625 14.4375 C-4.34529297 13.70853516 -4.12808594 12.97957031 -3.90429688 12.22851562 C-2.67491936 8.12689875 -1.3772445 4.05486405 0 0 Z " fill="#5C5A93" transform="translate(1098,230)"/>
<path d="M0 0 C0.33 0 0.66 0 1 0 C1.61877873 10.19839013 -0.25873917 19.99811489 -2 30 C-2.66 30 -3.32 30 -4 30 C-4.125 22.25 -4.125 22.25 -3 20 C-2.6318313 17.94343267 -2.30445445 15.87946029 -2 13.8125 C-1.74089844 12.06839844 -1.74089844 12.06839844 -1.4765625 10.2890625 C-1.31929687 9.20367187 -1.16203125 8.11828125 -1 7 C-0.88398437 6.20335937 -0.76796875 5.40671875 -0.6484375 4.5859375 C-0.42834333 3.05785515 -0.21335414 1.52903797 0 0 Z " fill="#4C4989" transform="translate(1376,250)"/>
<path d="M0 0 C0.33 0 0.66 0 1 0 C1 7.59 1 15.18 1 23 C-1.99381216 18.50928176 -2.15984661 15.3094509 -2.1875 10 C-2.20167969 8.7625 -2.21585938 7.525 -2.23046875 6.25 C-2 3 -2 3 0 0 Z " fill="#B7B7E6" transform="translate(214,244)"/>
<path d="M0 0 C0.87914062 0.00902344 1.75828125 0.01804688 2.6640625 0.02734375 C4.8178271 0.05075423 6.97145014 0.0866199 9.125 0.125 C9.125 0.785 9.125 1.445 9.125 2.125 C10.445 2.455 11.765 2.785 13.125 3.125 C3.555 3.125 -6.015 3.125 -15.875 3.125 C-15.875 2.795 -15.875 2.465 -15.875 2.125 C-10.49292923 -0.11605897 -5.71754456 -0.11193988 0 0 Z " fill="#494386" transform="translate(1244.875,199.875)"/>
<path d="M0 0 C0.33 0 0.66 0 1 0 C1.51998897 9.99534362 -0.05951027 19.25134921 -2 29 C-2.66 29 -3.32 29 -4 29 C-3.69215623 26.04111327 -3.37894426 23.08296833 -3.0625 20.125 C-2.97548828 19.28324219 -2.88847656 18.44148438 -2.79882812 17.57421875 C-2.71181641 16.76855469 -2.62480469 15.96289062 -2.53515625 15.1328125 C-2.456604 14.38918457 -2.37805176 13.64555664 -2.29711914 12.87939453 C-2 11 -2 11 -1 9 C-0.77532169 7.46331135 -0.59203195 5.92031946 -0.4375 4.375 C-0.35371094 3.55773437 -0.26992188 2.74046875 -0.18359375 1.8984375 C-0.12300781 1.27195312 -0.06242187 0.64546875 0 0 Z " fill="#504B8B" transform="translate(404,367)"/>
<path d="M0 0 C-4.1713904 2.15761573 -7.39752 3.12486983 -12.10546875 3.09765625 C-13.08837891 3.09443359 -14.07128906 3.09121094 -15.08398438 3.08789062 C-16.10814453 3.07951172 -17.13230469 3.07113281 -18.1875 3.0625 C-19.22326172 3.05798828 -20.25902344 3.05347656 -21.32617188 3.04882812 C-23.88417266 3.0370401 -26.44205733 3.02058515 -29 3 C-25.84722318 1.32070012 -23.90104439 0.79303364 -20.3125 0.9375 C-16.14068877 1.02966078 -12.18537339 0.74407018 -8.05078125 0.22265625 C-5.36055172 -0.06942581 -2.70275398 -0.06930138 0 0 Z " fill="#4C4B88" transform="translate(1238,335)"/>
<path d="M0 0 C0.33 0.99 0.66 1.98 1 3 C-2.63 6.63 -6.26 10.26 -10 14 C-10.99 13.67 -11.98 13.34 -13 13 C-11.58791833 11.39179588 -10.17013964 9.78859292 -8.75 8.1875 C-7.96109375 7.29417969 -7.1721875 6.40085938 -6.359375 5.48046875 C-4.34120555 3.35871775 -2.40083295 1.65745577 0 0 Z " fill="#575798" transform="translate(244,191)"/>
<path d="M0 0 C2.30441554 3.45662331 2.25860135 4.94857881 2 9 C1.67 9.66 1.34 10.32 1 11 C0.79907217 12.49579604 0.63663934 13.99696724 0.5 15.5 C0.11111111 19.77777778 0.11111111 19.77777778 -1 22 C-1.66 22 -2.32 22 -3 22 C-2.68905914 19.45813394 -2.37629464 16.91651402 -2.0625 14.375 C-1.97548828 13.66214844 -1.88847656 12.94929688 -1.79882812 12.21484375 C-1.29217395 8.12408039 -0.7110957 4.06157365 0 0 Z " fill="#524E8E" transform="translate(46,342)"/>
<path d="M0 0 C3.0639225 3.0639225 3.15056975 6.16495104 3.1875 10.375 C3.15548076 14.24932751 2.48233426 17.38681023 1 21 C0.67 21 0.34 21 0 21 C0 14.07 0 7.14 0 0 Z " fill="#453D82" transform="translate(1293,245)"/>
<path d="M0 0 C0.33 0 0.66 0 1 0 C-0.51711027 22.51711027 -0.51711027 22.51711027 -4 26 C-4 22.7 -4 19.4 -4 16 C-3.34 16 -2.68 16 -2 16 C-2.02320313 15.26394531 -2.04640625 14.52789062 -2.0703125 13.76953125 C-2.08835937 12.79371094 -2.10640625 11.81789063 -2.125 10.8125 C-2.14820313 9.84957031 -2.17140625 8.88664062 -2.1953125 7.89453125 C-1.9913544 4.87187222 -1.26874632 2.73230015 0 0 Z " fill="#4B4786" transform="translate(1356,368)"/>
<path d="M0 0 C0.33 0 0.66 0 1 0 C1.40126484 7.68347863 0.90055628 14.7885252 -2 22 C-2.66 22.33 -3.32 22.66 -4 23 C-3.52651786 19.54086334 -3.04525236 16.08285411 -2.5625 12.625 C-2.42779297 11.64015625 -2.29308594 10.6553125 -2.15429688 9.640625 C-2.02216797 8.69960938 -1.89003906 7.75859375 -1.75390625 6.7890625 C-1.63345947 5.91975098 -1.5130127 5.05043945 -1.38891602 4.15478516 C-1 2 -1 2 0 0 Z " fill="#55528E" transform="translate(51,317)"/>
<path d="M0 0 C0.66 0 1.32 0 2 0 C1.67 7.26 1.34 14.52 1 22 C-1.57944193 18.1308371 -1.25808937 14.9143521 -1.1875 10.4375 C-1.18685547 9.65697266 -1.18621094 8.87644531 -1.18554688 8.07226562 C-1.14057707 2.28115414 -1.14057707 2.28115414 0 0 Z " fill="#57528C" transform="translate(1171,269)"/>
<path d="M0 0 C0.33 0 0.66 0 1 0 C4.08311276 17.31498147 4.08311276 17.31498147 3 24 C2.01 24.99 1.02 25.98 0 27 C0 18.09 0 9.18 0 0 Z " fill="#484589" transform="translate(531,227)"/>
<path d="M0 0 C0.66 0 1.32 0 2 0 C1.01 6.93 0.02 13.86 -1 21 C-1.66 21 -2.32 21 -3 21 C-3.125 13.25 -3.125 13.25 -2 11 C-1.68954474 8.40856095 -1.49026088 5.81628268 -1.28125 3.21484375 C-1 1 -1 1 0 0 Z " fill="#514E8C" transform="translate(593,361)"/>
<path d="M0 0 C0.99 0.33 1.98 0.66 3 1 C2.01 7.6 1.02 14.2 0 21 C-0.66 21 -1.32 21 -2 21 C-2.02689216 19.52093108 -2.04634621 18.04172517 -2.0625 16.5625 C-2.07410156 15.73878906 -2.08570313 14.91507812 -2.09765625 14.06640625 C-2 12 -2 12 -1 11 C-0.76636119 9.15108054 -0.58696365 7.29511969 -0.4375 5.4375 C-0.35371094 4.42558594 -0.26992187 3.41367187 -0.18359375 2.37109375 C-0.12300781 1.58863281 -0.06242187 0.80617188 0 0 Z " fill="#595691" transform="translate(1366,305)"/>
<path d="M0 0 C0.66 0 1.32 0 2 0 C1.49021641 4.20571464 -0.83331312 6.26649849 -3.75 9.1875 C-5.04164063 10.50814453 -5.04164063 10.50814453 -6.359375 11.85546875 C-9.06205585 14.05039743 -10.58342441 14.68660907 -14 15 C-13.34 14.01 -12.68 13.02 -12 12 C-11.01 12 -10.02 12 -9 12 C-9 11.34 -9 10.68 -9 10 C-8.34 10 -7.68 10 -7 10 C-7 9.34 -7 8.68 -7 8 C-6.34 8 -5.68 8 -5 8 C-5 7.34 -5 6.68 -5 6 C-4.34 6 -3.68 6 -3 6 C-3 5.34 -3 4.68 -3 4 C-2.34 4 -1.68 4 -1 4 C-0.67 2.68 -0.34 1.36 0 0 Z " fill="#4D4B8D" transform="translate(191,140)"/>
<path d="M0 0 C-7.05320041 3.36333168 -14.00049012 6.49996937 -22 6 C-22 5.34 -22 4.68 -22 4 C-19.36 4 -16.72 4 -14 4 C-14 3.34 -14 2.68 -14 2 C-12.04396149 1.47061343 -10.08507711 0.95173199 -8.125 0.4375 C-7.03445313 0.14746094 -5.94390625 -0.14257812 -4.8203125 -0.44140625 C-2 -1 -2 -1 0 0 Z " fill="#4E4A8B" transform="translate(808,398)"/>
<path d="M0 0 C1.25657078 2.51314157 0.89935929 3.60384425 0.44140625 6.3515625 C0.30283203 7.20234375 0.16425781 8.053125 0.02148438 8.9296875 C-0.20571289 10.26386719 -0.20571289 10.26386719 -0.4375 11.625 C-0.58509766 12.5221875 -0.73269531 13.419375 -0.88476562 14.34375 C-1.2507907 16.56351497 -1.62276392 18.78211744 -2 21 C-4 19 -4 19 -4.1875 16 C-4 13 -4 13 -3 11 C-2.72824182 8.40751328 -2.55427432 5.81551489 -2.37890625 3.21484375 C-2.19134766 2.11849609 -2.19134766 2.11849609 -2 1 C-1.34 0.67 -0.68 0.34 0 0 Z " fill="#4D4986" transform="translate(1392,169)"/>
<path d="M0 0 C1.32 0 2.64 0 4 0 C4 0.66 4 1.32 4 2 C5.32 2 6.64 2 8 2 C8 2.66 8 3.32 8 4 C8.70125 3.938125 9.4025 3.87625 10.125 3.8125 C13.65260212 4.04256101 15.93984351 5.29200568 19 7 C18.34 7.66 17.68 8.32 17 9 C14.35057976 7.88288256 11.70563512 6.75680977 9.0625 5.625 C8.30775391 5.30789063 7.55300781 4.99078125 6.77539062 4.6640625 C1.11328125 2.2265625 1.11328125 2.2265625 0 0 Z " fill="#504C8D" transform="translate(1133,396)"/>
<path d="M0 0 C1.16393665 3.49180994 0.78393777 5.22444845 0.125 8.8125 C-0.14957031 10.33810547 -0.14957031 10.33810547 -0.4296875 11.89453125 C-0.61789062 12.91933594 -0.80609375 13.94414062 -1 15 C-1.3366986 16.99943621 -1.67103214 18.99927732 -2 21 C-2.33 21 -2.66 21 -3 21 C-3.23191047 14.10710557 -3.11022849 7.6233449 -1 1 C-0.67 0.67 -0.34 0.34 0 0 Z " fill="#524D8E" transform="translate(356,185)"/>
<path d="M0 0 C0.66 0 1.32 0 2 0 C1.01 6.6 0.02 13.2 -1 20 C-3 18 -3 18 -3.1875 15.4375 C-3 13 -3 13 -2 12 C-1.79160985 10.35892758 -1.63248275 8.71143707 -1.5 7.0625 C-1.10977702 2.21955403 -1.10977702 2.21955403 0 0 Z " fill="#4E4A89" transform="translate(589,383)"/>
<path d="M0 0 C0 0.66 0 1.32 0 2 C-0.95712891 2.09087891 -0.95712891 2.09087891 -1.93359375 2.18359375 C-3.17302734 2.30927734 -3.17302734 2.30927734 -4.4375 2.4375 C-5.67306641 2.55931641 -5.67306641 2.55931641 -6.93359375 2.68359375 C-8.98662025 2.78930815 -8.98662025 2.78930815 -10 4 C-12.67058851 4.14115161 -15.32432238 4.04247107 -18 4 C-17 2 -17 2 -15.21484375 1.3671875 C-10.0204739 0.24456211 -5.31341973 -0.19321526 0 0 Z " fill="#585691" transform="translate(765,132)"/>
<path d="M0 0 C4.12238791 4.12238791 3.05695568 10.95416615 3.0625 16.4375 C3.04653255 18.62504093 3.02730494 20.81257121 3 23 C2.67 23 2.34 23 2 23 C1.90912109 21.71802734 1.90912109 21.71802734 1.81640625 20.41015625 C1.73261719 19.30542969 1.64882813 18.20070312 1.5625 17.0625 C1.48128906 15.96035156 1.40007813 14.85820312 1.31640625 13.72265625 C1.29581916 11.08890097 1.29581916 11.08890097 0 10 C-0.07205511 8.31391034 -0.08386068 6.62499341 -0.0625 4.9375 C-0.05347656 4.01839844 -0.04445313 3.09929687 -0.03515625 2.15234375 C-0.02355469 1.44207031 -0.01195312 0.73179687 0 0 Z " fill="#4B4685" transform="translate(910,214)"/>
<path d="M0 0 C0.66 0.33 1.32 0.66 2 1 C1.35531497 3.43780899 0.70929951 5.87525201 0.0625 8.3125 C-0.11990234 9.00279297 -0.30230469 9.69308594 -0.49023438 10.40429688 C-1.2593261 13.29887844 -2.05261576 16.15784729 -3 19 C-3.66 19 -4.32 19 -5 19 C-4.23915412 14.81134319 -3.12177302 10.77515205 -1.9375 6.6875 C-1.57527344 5.43324219 -1.21304688 4.17898437 -0.83984375 2.88671875 C-0.42412109 1.45779297 -0.42412109 1.45779297 0 0 Z " fill="#514D8B" transform="translate(207,106)"/>
<path d="M0 0 C0.33 0 0.66 0 1 0 C1.22424141 7.36259293 0.90120099 13.87049629 -1 21 C-1.33 21 -1.66 21 -2 21 C-2.02698189 19.37509046 -2.04638757 17.75005367 -2.0625 16.125 C-2.07410156 15.22007812 -2.08570313 14.31515625 -2.09765625 13.3828125 C-2 11 -2 11 -1 9 C-0.77532169 7.46331135 -0.59203195 5.92031946 -0.4375 4.375 C-0.35371094 3.55773437 -0.26992188 2.74046875 -0.18359375 1.8984375 C-0.12300781 1.27195312 -0.06242188 0.64546875 0 0 Z " fill="#494487" transform="translate(600,317)"/>
<path d="M0 0 C0.66 0 1.32 0 2 0 C1.35534798 4.33304076 -0.18925122 7.86672065 -2.0625 11.8125 C-2.61035156 12.97394531 -3.15820312 14.13539063 -3.72265625 15.33203125 C-4.14417969 16.21246094 -4.56570313 17.09289062 -5 18 C-6.41361227 13.75916318 -4.65468358 10.92539654 -3 7 C-2.71253906 6.31421875 -2.42507813 5.6284375 -2.12890625 4.921875 C-1.43001723 3.27664342 -0.71647225 1.63765086 0 0 Z " fill="#494587" transform="translate(1182,236)"/>
<path d="M0 0 C0 0.66 0 1.32 0 2 C-0.63808594 2.20496094 -1.27617188 2.40992188 -1.93359375 2.62109375 C-2.75988281 2.89050781 -3.58617187 3.15992188 -4.4375 3.4375 C-5.67306641 3.83775391 -5.67306641 3.83775391 -6.93359375 4.24609375 C-8.96219588 4.82155494 -8.96219588 4.82155494 -10 6 C-11.66617115 6.04063832 -13.33388095 6.042721 -15 6 C-15 5.34 -15 4.68 -15 4 C-13.25307205 3.32532438 -11.50231475 2.66055844 -9.75 2 C-8.77546875 1.62875 -7.8009375 1.2575 -6.796875 0.875 C-4 0 -4 0 0 0 Z " fill="#575691" transform="translate(739,138)"/>
<path d="M0 0 C1.23556641 0.01740234 1.23556641 0.01740234 2.49609375 0.03515625 C3.32238281 0.04417969 4.14867187 0.05320312 5 0.0625 C5.63808594 0.07410156 6.27617188 0.08570313 6.93359375 0.09765625 C6.93359375 0.42765625 6.93359375 0.75765625 6.93359375 1.09765625 C1.09780299 2.78207767 -4.01100829 3.35908636 -10.06640625 3.22265625 C-11.22849609 3.20912109 -11.22849609 3.20912109 -12.4140625 3.1953125 C-14.29831468 3.17205013 -16.18240457 3.13619265 -18.06640625 3.09765625 C-18.06640625 2.76765625 -18.06640625 2.43765625 -18.06640625 2.09765625 C-16.99519531 2.03707031 -15.92398438 1.97648437 -14.8203125 1.9140625 C-13.42316234 1.82967088 -12.02602768 1.74502219 -10.62890625 1.66015625 C-9.56833008 1.60118164 -9.56833008 1.60118164 -8.48632812 1.54101562 C-5.3266402 1.34448001 -2.84144879 0.13428397 0 0 Z " fill="#443F87" transform="translate(777.06640625,403.90234375)"/>
<path d="M0 0 C0.33 0 0.66 0 1 0 C1.21432579 6.64409958 0.51233701 12.53205867 -1 19 C-1.33 19 -1.66 19 -2 19 C-2.22262303 12.2718373 -1.95021536 6.46008837 0 0 Z " fill="#4A4888" transform="translate(416,302)"/>
<path d="M0 0 C0.33 0 0.66 0 1 0 C1 4.29 1 8.58 1 13 C0.01 13.33 -0.98 13.66 -2 14 C-1.85923685 12.0412957 -1.7122324 10.08303907 -1.5625 8.125 C-1.48128906 7.03445312 -1.40007813 5.94390625 -1.31640625 4.8203125 C-1 2 -1 2 0 0 Z " fill="#595594" transform="translate(65,237)"/>
<path d="M0 0 C0.33 0 0.66 0 1 0 C1.20852314 6.40629424 1.1583195 11.92972642 -1 18 C-1.33 18 -1.66 18 -2 18 C-1.85946128 15.37461716 -1.71281053 12.74982573 -1.5625 10.125 C-1.52318359 9.37863281 -1.48386719 8.63226563 -1.44335938 7.86328125 C-1.11328125 2.2265625 -1.11328125 2.2265625 0 0 Z " fill="#524D8C" transform="translate(83,135)"/>
<path d="M0 0 C0.66 0 1.32 0 2 0 C1.71767279 2.10544013 1.4238102 4.20933589 1.125 6.3125 C0.96257813 7.48425781 0.80015625 8.65601563 0.6328125 9.86328125 C0 13 0 13 -2 16 C-2.2358396 10.22192976 -1.86783046 5.48675196 0 0 Z " fill="#4B4888" transform="translate(40,382)"/>
<path d="M0 0 C0.33 0.66 0.66 1.32 1 2 C-4.22512279 3.46670113 -8.5814234 4.22577402 -14 4 C-10.28835785 0.28835785 -5.09745779 -0.30893684 0 0 Z " fill="#51518E" transform="translate(1208,132)"/>
<path d="M0 0 C2.47186455 2.96346786 3.66248361 5.54041689 4.6875 9.25 C4.93886719 10.14203125 5.19023437 11.0340625 5.44921875 11.953125 C5.72185547 12.96632813 5.72185547 12.96632813 6 14 C5.01 13.67 4.02 13.34 3 13 C2.05078125 11.07421875 2.05078125 11.07421875 1.3125 8.6875 C0.93544922 7.51767578 0.93544922 7.51767578 0.55078125 6.32421875 C0 4 0 4 0 0 Z " fill="#57548F" transform="translate(331,110)"/>
<path d="M0 0 C6.93 0.495 6.93 0.495 14 1 C14.33 1.99 14.66 2.98 15 4 C13.06115111 3.71743908 11.12394039 3.4236207 9.1875 3.125 C8.10855469 2.96257812 7.02960937 2.80015625 5.91796875 2.6328125 C3 2 3 2 0 0 Z " fill="#605B97" transform="translate(703,403)"/>
<path d="M0 0 C1.97944936 2.96917403 2.29350581 3.65702279 2.3125 7 C2.32925781 7.680625 2.34601562 8.36125 2.36328125 9.0625 C2 11 2 11 -1 14 C-0.67 9.38 -0.34 4.76 0 0 Z " fill="#5B5797" transform="translate(516,333)"/>
<path d="M0 0 C-4.10717344 2.73811563 -7.96366479 4.25995769 -12.9375 3.625 C-13.618125 3.41875 -14.29875 3.2125 -15 3 C-10.42919136 0.44034716 -5.14097791 -2.05639116 0 0 Z " fill="#514F8E" transform="translate(782,334)"/>
<path d="M0 0 C0.33 0 0.66 0 1 0 C1.02721176 1.89575251 1.04649136 3.79161979 1.0625 5.6875 C1.07410156 6.74324219 1.08570313 7.79898438 1.09765625 8.88671875 C1.00865425 11.72410262 0.64939838 14.2438919 0 17 C-0.66 17 -1.32 17 -2 17 C-1.38273804 11.32644329 -0.72054048 5.66138945 0 0 Z " fill="#5F5C94" transform="translate(950,231)"/>
<path d="M0 0 C0.33 0.99 0.66 1.98 1 3 C-0.14453125 4.97265625 -0.14453125 4.97265625 -1.8125 7.0625 C-2.35519531 7.75472656 -2.89789062 8.44695312 -3.45703125 9.16015625 C-5 11 -5 11 -7 13 C-7.4025937 9.47730515 -7.13372795 8.20059192 -5.125 5.1875 C-4.073125 4.1046875 -4.073125 4.1046875 -3 3 C-2.34 3 -1.68 3 -1 3 C-0.67 2.01 -0.34 1.02 0 0 Z " fill="#514E8F" transform="translate(1191,225)"/>
<path d="M0 0 C0.99 0.33 1.98 0.66 3 1 C3 5.29 3 9.58 3 14 C2.67 14 2.34 14 2 14 C0.66416101 9.15758367 -0.25328119 5.06562383 0 0 Z " fill="#BABAEB" transform="translate(210,89)"/>
<path d="M0 0 C0.66 0.33 1.32 0.66 2 1 C-0.16800807 5.44441654 -2.52055587 9.72509633 -5 14 C-5.66 13.67 -6.32 13.34 -7 13 C-3.535 6.565 -3.535 6.565 0 0 Z " fill="#4D4B8B" transform="translate(646,213)"/>
<path d="M0 0 C0.66 0 1.32 0 2 0 C1.88610125 1.79240663 1.75852313 3.58394835 1.625 5.375 C1.52058594 6.87160156 1.52058594 6.87160156 1.4140625 8.3984375 C1 11 1 11 -1 13 C-1.02696365 11.20841511 -1.04637917 9.41671527 -1.0625 7.625 C-1.07410156 6.62726563 -1.08570313 5.62953125 -1.09765625 4.6015625 C-1 2 -1 2 0 0 Z " fill="#54518C" transform="translate(1095,186)"/>
<path d="M0 0 C0.33 0 0.66 0 1 0 C1 4.29 1 8.58 1 13 C0.01 13 -0.98 13 -2 13 C-1.34 8.71 -0.68 4.42 0 0 Z " fill="#585591" transform="translate(977,81)"/>
<path d="M0 0 C0.33 0 0.66 0 1 0 C1 3.63 1 7.26 1 11 C0.01 11.33 -0.98 11.66 -2 12 C-1.85904936 10.3745692 -1.71207913 8.74965949 -1.5625 7.125 C-1.48128906 6.22007812 -1.40007812 5.31515625 -1.31640625 4.3828125 C-1 2 -1 2 0 0 Z " fill="#565390" transform="translate(335,299)"/>
<path d="M0 0 C0.33 0 0.66 0 1 0 C1.43200679 4.75207471 -0.01510917 7.78210698 -2 12 C-2.66 12 -3.32 12 -4 12 C-3.52494322 10.18641846 -3.04483958 8.37415821 -2.5625 6.5625 C-2.29566406 5.55316406 -2.02882813 4.54382813 -1.75390625 3.50390625 C-1 1 -1 1 0 0 Z " fill="#545290" transform="translate(637,232)"/>
<path d="M0 0 C0.33 0 0.66 0 1 0 C1 3.63 1 7.26 1 11 C0.01 11.33 -0.98 11.66 -2 12 C-1.85904936 10.3745692 -1.71207913 8.74965949 -1.5625 7.125 C-1.48128906 6.22007813 -1.40007812 5.31515625 -1.31640625 4.3828125 C-1 2 -1 2 0 0 Z " fill="#55548F" transform="translate(95,67)"/>
<path d="M0 0 C0.66 0 1.32 0 2 0 C1.67 3.63 1.34 7.26 1 11 C0.34 11 -0.32 11 -1 11 C-1.02688151 9.35425434 -1.04634123 7.70838587 -1.0625 6.0625 C-1.07410156 5.14597656 -1.08570313 4.22945313 -1.09765625 3.28515625 C-1 1 -1 1 0 0 Z " fill="#534F8D" transform="translate(423,263)"/>
<path d="M0 0 C0.99 0 1.98 0 3 0 C3 0.66 3 1.32 3 2 C0.8125 3.5078125 0.8125 3.5078125 -2 5.125 C-2.928125 5.66382813 -3.85625 6.20265625 -4.8125 6.7578125 C-5.8953125 7.37269531 -5.8953125 7.37269531 -7 8 C-6.69140625 6.078125 -6.69140625 6.078125 -6 4 C-2.9375 2.75 -2.9375 2.75 0 2 C0 1.34 0 0.68 0 0 Z " fill="#535091" transform="translate(285,256)"/>
<path d="M0 0 C0.66 0.66 1.32 1.32 2 2 C-0.31 4.97 -2.62 7.94 -5 11 C-5.33 10.01 -5.66 9.02 -6 8 C-4.78515625 5.95703125 -4.78515625 5.95703125 -3.0625 3.8125 C-2.49660156 3.09707031 -1.93070313 2.38164062 -1.34765625 1.64453125 C-0.90292969 1.10183594 -0.45820312 0.55914062 0 0 Z " fill="#565693" transform="translate(1126,182)"/>
<path d="M0 0 C0.33 0 0.66 0 1 0 C1.04241723 2.33294775 1.04092937 4.66702567 1 7 C0.67 7.33 0.34 7.66 0 8 C-0.23192865 9.51469448 -0.41215238 11.03754562 -0.5625 12.5625 C-0.64628906 13.38878906 -0.73007813 14.21507812 -0.81640625 15.06640625 C-0.87699219 15.70449219 -0.93757813 16.34257812 -1 17 C-1.33 17 -1.66 17 -2 17 C-2.3690205 5.47835991 -2.3690205 5.47835991 0 0 Z " fill="#4A458A" transform="translate(1275,368)"/>
<path d="M0 0 C0.99 0.33 1.98 0.66 3 1 C0.702779 2.74271938 -1.59866729 4.39911152 -4 6 C-6.1875 5.625 -6.1875 5.625 -8 5 C-7.4225 4.731875 -6.845 4.46375 -6.25 4.1875 C-3.93538025 3.06119881 -3.93538025 3.06119881 -1.9375 1.3125 C-0.9784375 0.6628125 -0.9784375 0.6628125 0 0 Z " fill="#504D8E" transform="translate(272,264)"/>
<path d="M0 0 C0 0.33 0 0.66 0 1 C-1.0725 1.144375 -2.145 1.28875 -3.25 1.4375 C-5.91662949 1.83749442 -8.41399729 2.27591924 -11 3 C-11.33 2.34 -11.66 1.68 -12 1 C-8.00439392 -1.83022097 -4.57262677 -0.76210446 0 0 Z " fill="#5D5B98" transform="translate(1233,203)"/>
<path d="M0 0 C0.66 0 1.32 0 2 0 C1.67 3.3 1.34 6.6 1 10 C0.34 10 -0.32 10 -1 10 C-0.67 6.7 -0.34 3.4 0 0 Z " fill="#48448A" transform="translate(360,158)"/>
<path d="M0 0 C0.33 0 0.66 0 1 0 C1.16682272 4.92127034 1.24828052 8.50343896 -1 13 C-1.33 13 -1.66 13 -2 13 C-1.85851011 11.3954444 -1.71164314 9.79136233 -1.5625 8.1875 C-1.48128906 7.29417969 -1.40007813 6.40085938 -1.31640625 5.48046875 C-1 3 -1 3 0 0 Z " fill="#474487" transform="translate(933,147)"/>
<path d="M0 0 C2.4294516 3.6441774 2.16179575 5.71241272 2 10 C1.01 10 0.02 10 -1 10 C-0.67 6.7 -0.34 3.4 0 0 Z " fill="#65629A" transform="translate(506,389)"/>
<path d="M0 0 C0.33 0.99 0.66 1.98 1 3 C-1.25 5.0625 -1.25 5.0625 -4 7 C-5.32 6.67 -6.64 6.34 -8 6 C-5.36 4.02 -2.72 2.04 0 0 Z " fill="#5A5997" transform="translate(1264,319)"/>
<path d="M0 0 C0.66 0 1.32 0 2 0 C1.67 3.3 1.34 6.6 1 10 C-1 8 -1 8 -1.1875 4.4375 C-1 1 -1 1 0 0 Z " fill="#5E5C97" transform="translate(605,294)"/>
<path d="M0 0 C0.33 0 0.66 0 1 0 C0.88601335 1.62580966 0.75844341 3.25067157 0.625 4.875 C0.52058594 6.23238281 0.52058594 6.23238281 0.4140625 7.6171875 C0 10 0 10 -2 12 C-2.28571429 3.42857143 -2.28571429 3.42857143 0 0 Z " fill="#484386" transform="translate(1174,256)"/>
<path d="M0 0 C0.33 0 0.66 0 1 0 C1 2.97 1 5.94 1 9 C0.01 9.33 -0.98 9.66 -2 10 C-1.34 6.7 -0.68 3.4 0 0 Z " fill="#504B8A" transform="translate(63,251)"/>
<path d="M0 0 C0.66 0 1.32 0 2 0 C0.66511872 3.59391114 -0.96022723 6.75490696 -3 10 C-3.33 8.68 -3.66 7.36 -4 6 C-3.34 6 -2.68 6 -2 6 C-1.7834375 5.071875 -1.7834375 5.071875 -1.5625 4.125 C-1 2 -1 2 0 0 Z " fill="#4E4B8D" transform="translate(438,222)"/>
<path d="M0 0 C-2.64 1.98 -5.28 3.96 -8 6 C-7.75 3.625 -7.75 3.625 -7 1 C-4.12732844 -1.10662581 -3.46720491 -1.15573497 0 0 Z " fill="#595795" transform="translate(1206,215)"/>
<path d="M0 0 C0.33 0 0.66 0 1 0 C0.67 3.63 0.34 7.26 0 11 C-0.66 10.67 -1.32 10.34 -2 10 C-2.17942163 6.05272412 -2.09350689 3.4019487 0 0 Z " fill="#4D4988" transform="translate(1060,78)"/>
<path d="M0 0 C0.33 0 0.66 0 1 0 C0.67 3.63 0.34 7.26 0 11 C-0.66 11 -1.32 11 -2 11 C-2.19622241 6.78121808 -1.80230168 3.82989106 0 0 Z " fill="#494585" transform="translate(120,394)"/>
<path d="M0 0 C0.66 0 1.32 0 2 0 C1.67 3.3 1.34 6.6 1 10 C-1.29404844 6.55892734 -1.26293056 5.03160191 -1 1 C-0.67 0.67 -0.34 0.34 0 0 Z " fill="#5A5792" transform="translate(407,354)"/>
<path d="M0 0 C0.66 0 1.32 0 2 0 C2.25 6.625 2.25 6.625 0 10 C-0.95024979 6.30458414 -0.95024979 3.69541586 0 0 Z " fill="#514E8E" transform="translate(514,347)"/>
<path d="M0 0 C0.66 0.33 1.32 0.66 2 1 C-1.17320782 4.53586014 -3.16743695 6.58578031 -8 7 C-7.236875 6.401875 -6.47375 5.80375 -5.6875 5.1875 C-3.6516425 3.53040668 -1.8021721 1.89702326 0 0 Z " fill="#595993" transform="translate(796,322)"/>
<path d="M0 0 C0.66 0.66 1.32 1.32 2 2 C1.01 4.31 0.02 6.62 -1 9 C-2.1875 7.3125 -2.1875 7.3125 -3 5 C-1.625 2.25 -1.625 2.25 0 0 Z " fill="#524F8F" transform="translate(901,305)"/>
<path d="M0 0 C0.66 0 1.32 0 2 0 C0.125 4.75 0.125 4.75 -1 7 C-1.99 6.67 -2.98 6.34 -4 6 C-2.7260411 3.96166576 -1.38938077 1.96147874 0 0 Z " fill="#525090" transform="translate(227,210)"/>
<path d="M0 0 C0.66 0.33 1.32 0.66 2 1 C-0.88087546 3.40072955 -3.56404834 5.47291037 -7 7 C-5.55609075 3.19333016 -3.65047197 1.73397418 0 0 Z " fill="#4D4C8D" transform="translate(252,186)"/>
<path d="M0 0 C0.66 0 1.32 0 2 0 C1.67 3.3 1.34 6.6 1 10 C-1 8 -1 8 -1.1875 5 C-1 2 -1 2 0 0 Z " fill="#575392" transform="translate(1389,180)"/>
<path d="M0 0 C0.66 0 1.32 0 2 0 C1.67 3.3 1.34 6.6 1 10 C-1 8 -1 8 -1.1875 5 C-1 2 -1 2 0 0 Z " fill="#53528E" transform="translate(447,128)"/>
<path d="M0 0 C0.33 0 0.66 0 1 0 C1.36923077 6.4 1.36923077 6.4 -0.5 9.4375 C-0.995 9.953125 -1.49 10.46875 -2 11 C-1.125 3.375 -1.125 3.375 0 0 Z " fill="#4A4587" transform="translate(1271,389)"/>
<path d="M0 0 C2.29013653 3.4352048 2.17842973 4.985331 2 9 C1.01 9 0.02 9 -1 9 C-0.67 6.03 -0.34 3.06 0 0 Z " fill="#626096" transform="translate(46,342)"/>
<path d="M0 0 C0.33 0 0.66 0 1 0 C1.4726477 8.19256018 1.4726477 8.19256018 -0.5 11.5625 C-0.995 12.036875 -1.49 12.51125 -2 13 C-2.042721 11.33388095 -2.04063832 9.66617115 -2 8 C-1.67 7.67 -1.34 7.34 -1 7 C-0.63239269 4.67182036 -0.29758419 2.3381615 0 0 Z " fill="#454088" transform="translate(333,313)"/>
<path d="M0 0 C0.66 0.66 1.32 1.32 2 2 C1.9765625 4.1640625 1.9765625 4.1640625 1.625 6.625 C1.51414062 7.44226563 1.40328125 8.25953125 1.2890625 9.1015625 C1.19367188 9.72804687 1.09828125 10.35453125 1 11 C-1.30903272 7.01647791 -0.86516528 4.49885947 0 0 Z " fill="#524F8F" transform="translate(348,223)"/>
<path d="M0 0 C1.65 0 3.3 0 5 0 C3.25 4.875 3.25 4.875 1 6 C0.67 4.02 0.34 2.04 0 0 Z " fill="#4B4686" transform="translate(1395,133)"/>
<path d="M0 0 C-0.33 0.99 -0.66 1.98 -1 3 C-4.3 2.67 -7.6 2.34 -11 2 C-11 1.67 -11 1.34 -11 1 C-9.54182203 0.83197949 -8.0834516 0.66562857 -6.625 0.5 C-5.81289063 0.4071875 -5.00078125 0.314375 -4.1640625 0.21875 C-2 0 -2 0 0 0 Z " fill="#575690" transform="translate(517,131)"/>
<path d="M0 0 C0.66 0 1.32 0 2 0 C1.42647107 3.87132028 -0.48704352 6.08172796 -3 9 C-2.5020163 5.26512223 -2.12508244 3.18762365 0 0 Z " fill="#53508F" transform="translate(198,130)"/>
<path d="M0 0 C2.0957222 4.1914444 2.29166003 4.80210489 1 9 C0.34 9.99 -0.32 10.98 -1 12 C-0.67 8.04 -0.34 4.08 0 0 Z " fill="#676698" transform="translate(370,97)"/>
<path d="M0 0 C0.33 0 0.66 0 1 0 C1.1799928 5.21979128 0.97094808 9.07262981 -1 14 C-1.33 14 -1.66 14 -2 14 C-2.21192221 8.80790596 -1.5912689 4.873261 0 0 Z " fill="#454286" transform="translate(91,93)"/>
<path d="M0 0 C2.1519437 3.22791555 2.20086443 4.28400809 2 8 C1.01 8.33 0.02 8.66 -1 9 C-0.67 6.03 -0.34 3.06 0 0 Z " fill="#636097" transform="translate(938,298)"/>
<path d="M0 0 C0.33 0 0.66 0 1 0 C1.36923077 5.53846154 1.36923077 5.53846154 -0.5 7.875 C-1.2425 8.431875 -1.2425 8.431875 -2 9 C-1.125 1.125 -1.125 1.125 0 0 Z " fill="#53518E" transform="translate(1095,241)"/>
<path d="M0 0 C0.66 0.33 1.32 0.66 2 1 C-1.465 3.97 -1.465 3.97 -5 7 C-3.92643531 2.70574125 -3.4915227 2.25259529 0 0 Z " fill="#474289" transform="translate(447,213)"/>
</svg>
